<svg width="1728" height="5567" viewBox="0 0 1728 5567" fill="none" xmlns="http://www.w3.org/2000/svg">
<g filter="url(#filter0_f_262_279)">
<path d="M2611.25 595.3C2602.06 388.348 1875.26 116.065 1862.54 113.97C1386.97 -7.83329 1851.22 601.849 1862.61 619.919C2181.5 249.613 2470.45 648.049 2611.25 595.3Z" fill="#3B37FF"/>
<path d="M2535.36 779.176C2520.22 584.245 1832.52 348.025 1820.57 346.409C1372.37 244.999 1661.77 792.649 1672.98 809.37C1990.81 580.437 2226.16 672.103 2535.36 779.176Z" fill="#37E7FF"/>
<path d="M2448.77 677.409C2250.04 461.576 1889.28 491.576 1812.69 571.906C1703.27 818.514 1501.44 1186.16 1797.03 873.063C2128.18 522.308 2747.29 1001.63 2448.77 677.409Z" fill="#FF37D3"/>
<path d="M2419.8 728.919C2482.97 676.271 2077.77 499.677 1853.63 474.511C1513.8 519.049 1483.97 856.626 1811.23 747.556C1910.34 714.522 2005.36 606.599 2253.99 711.992C2307.73 734.77 2402.79 743.096 2419.8 728.919Z" fill="white"/>
</g>
<g filter="url(#filter1_f_262_279)">
<path d="M1533.68 3554.15C1579.08 3669.87 1801.62 3421.21 1907.22 3282.41C1955.91 3081.35 1497.52 2980.06 1541.24 3131.87C1609.73 3369.69 1658.1 3359.02 1533.68 3554.15Z" fill="#3B37FF"/>
<path d="M1793.6 3988.38C1759.11 3901.95 1695.34 3544.73 1772.34 3535.2C1671.98 3299.16 1549.91 3740.21 1545.16 3750.13C1724.04 3655.65 1721.95 3943.51 1793.6 3988.38Z" fill="#EB1B1B"/>
</g>
<g filter="url(#filter2_f_262_279)">
<path d="M1562.32 5499.16C1588.08 5620.76 1848.47 5412.06 1975.44 5292.5C2056.51 5102.17 1621 4926.93 1639.18 5083.87C1667.65 5329.7 1717.12 5327.12 1562.32 5499.16Z" fill="#3B37FF"/>
<path d="M1747.35 5970.2C1727.53 5879.28 1723.33 5516.43 1800.85 5519.68C1740.65 5270.36 1547.75 5685.36 1541.43 5694.36C1733.42 5630.57 1684.05 5914.17 1747.35 5970.2Z" fill="#EB1B1B"/>
</g>
<g filter="url(#filter3_f_262_279)">
<path d="M829.65 49.5264C809.54 69.9416 362.124 269.211 336.814 -350.365C434.963 -445.185 706.267 -123.279 829.65 49.5264Z" fill="#37E7FF"/>
<path d="M468.973 -418.419C396.098 -317.035 389.035 -121.213 713.751 4.62571C1083.56 147.94 725.537 -291.733 468.973 -418.419Z" fill="#FF003D"/>
</g>
<g style="mix-blend-mode:color-dodge" filter="url(#filter4_f_262_279)">
<path d="M703.265 40.6214C679.723 57.8686 250.112 219.113 458.833 -322.298C571.954 -402.27 668.922 -113.673 703.265 40.6214Z" fill="#FF3737"/>
<path d="M313.481 -380.776C262.5 -245.419 320.963 -6.62258 745.013 91.0662C1227.95 202.321 657.823 -270.517 313.481 -380.776Z" fill="#FF3743"/>
</g>
<g filter="url(#filter5_f_262_279)">
<path d="M105.82 884.954C-57.2302 701.524 -641.999 1458.17 -650.189 1473.94C-989.715 2022.49 -167.201 1835.86 -147.481 1837.1C-416.463 1463.46 73.225 1131.58 105.82 884.954Z" fill="#3B37FF"/>
<path d="M-21.1612 638.399C-8.62549 434.852 -321.235 663.137 -479.106 802.723C-614.733 1073.06 -252.075 1524.73 -221.496 1268.02C-173.596 865.913 -36.8308 892.833 -21.1612 638.399Z" fill="#37E7FF"/>
<path d="M-65.8902 700.887C-47.2649 471.057 -406.41 761.179 -588.311 934.969C-769.523 1107.8 -234.786 1725.51 -336.41 1440.89C-438.035 1156.26 -89.1719 988.175 -65.8902 700.887Z" fill="#FF37D3"/>
<path d="M-98.5675 865.85C-83.6111 736.707 -360.863 979.723 -501.359 1117.37C-560.119 1173.47 -464.185 1264.87 -371.397 1445.72C-278.609 1626.57 -235.944 1453.58 -226.79 1221.12C-217.635 988.658 -117.263 1027.28 -98.5675 865.85Z" fill="#FFF500"/>
<path d="M-118.449 877.002C-124.661 830.921 -393.315 1081.82 -526.865 1213.03C-434.639 1337.72 -253.205 1548.65 -265.277 1394.84C-280.368 1202.57 -220.223 1077.75 -189.733 1034.44C-159.244 991.128 -110.683 934.604 -118.449 877.002Z" fill="white"/>
</g>
<g style="mix-blend-mode:color-dodge" filter="url(#filter6_f_262_279)">
<path d="M141.978 714.48C-44.4959 598.131 -518.87 1538.98 -524.803 1557.12C-785.22 2208.26 2.6349 1727.56 22.3086 1721.52C-295.077 1461.38 143.635 963.224 141.978 714.48Z" fill="#3B37FF"/>
<path d="M-0.0371558 589.252C12.4985 385.705 -300.111 613.99 -457.982 753.576C-593.609 1023.91 -230.951 1475.58 -200.372 1218.88C-152.472 816.766 -15.7068 843.686 -0.0371558 589.252Z" fill="#5E6566"/>
<path d="M116.966 772.712C154.741 667.873 -200.003 986.694 -405.455 1006.79C-586.667 1179.63 -51.9294 1797.34 -153.554 1512.71C-255.179 1228.09 25.1067 1027.65 116.966 772.712Z" fill="#FF37D3"/>
<path d="M-11.2703 1059.89C40.5403 955.762 -265.288 949.506 -424.679 959.395C-490.892 962.2 -438.478 1122.37 -415.915 1360.51C-393.353 1598.65 -305.027 1477.54 -226.625 1275.68C-148.223 1073.81 -76.0335 1190.06 -11.2703 1059.89Z" fill="#FFF500"/>
<path d="M-25.8808 903.825C-31.6451 857.544 -302.398 1101.81 -437.053 1229.72C-346.125 1356.88 -166.915 1572.63 -177.501 1418.37C-190.734 1225.55 -129.462 1102.15 -98.5922 1059.58C-67.7222 1017.01 -18.6754 961.676 -25.8808 903.825Z" fill="white"/>
</g>
<g filter="url(#filter7_f_262_279)">
<path d="M-45.8442 2946.58C205.018 3093.26 126.32 2530.46 55.6131 2230.73C-196.805 1877.19 -1018.52 2072.64 -712.164 2277.33C-232.284 2597.96 -359.422 2763.24 -45.8442 2946.58Z" fill="#37E7FF"/>
<path d="M-65.7113 3158.74C214.509 3330.33 88.6027 2665.96 -9.37797 2312.33C-106.609 1960.23 -1256.7 2279.25 -825.037 2325.39C-393.371 2371.53 -415.987 2944.26 -65.7113 3158.74Z" fill="#FF37D3"/>
<path d="M-49.3788 3127.54C142.058 3071.46 -172.321 2369.02 -180.383 2357.35C-440.208 1910.79 -619.064 2587.78 -627.395 2601.99C-261.321 2534.64 -211.579 3015.93 -49.3788 3127.54Z" fill="#EB1B1B"/>
<path d="M-253.736 3009.83C-99.3273 3112.23 -220.796 2587.2 -300.831 2311.88C-332.422 2197.68 -514.013 2267.3 -807.445 2275.63C-1100.88 2283.95 -909.41 2451.32 -619.406 2611.94C-329.403 2772.57 -446.748 2881.82 -253.736 3009.83Z" fill="#FFF500"/>
<path d="M-254.451 2976.18C-191.515 2997.32 -328.867 2478.72 -405.411 2216.78C-626.901 2260.21 -1018.83 2367.59 -814.643 2449.69C-559.404 2552.31 -441.172 2712.24 -406.679 2780.57C-372.186 2848.9 -333.122 2949.77 -254.451 2976.18Z" fill="white"/>
</g>
<g style="mix-blend-mode:color-dodge">
<path d="M-281.355 3356.83C-173.405 3474.17 -338.868 2797.35 -225.022 2510.42C-322.253 2158.32 -1472.35 2477.34 -1040.68 2523.48C-609.015 2569.62 -543.858 3071.52 -281.355 3356.83Z" fill="#FF37D3"/>
<path d="M-560.254 3002.4C-462.732 3138.01 -247.167 2734 -151.575 2515.04C-110.205 2424.91 -349.876 2392.58 -668.646 2270.64C-987.417 2148.7 -893.043 2343.86 -689.035 2577.33C-485.027 2810.81 -682.156 2832.9 -560.254 3002.4Z" fill="#FFF500"/>
<path d="M-351.465 3082.55C-288.579 3104.41 -416.047 2587.25 -487.643 2325.94C-711.394 2366.06 -1107.96 2467.4 -904.21 2551.77C-649.525 2657.22 -533.874 2817.74 -500.582 2886.11C-467.29 2954.47 -430.073 3055.23 -351.465 3082.55Z" fill="white"/>
</g>
<g filter="url(#filter9_f_262_279)">
<path d="M1528.43 2374.96C1647.68 2468.7 2088.02 2160.58 2094.23 2153.91C2350.87 1925.25 1826.18 1913 1811.57 1911.21C1891.97 2281.38 1554.8 2264.66 1528.43 2374.96Z" fill="#3B37FF"/>
<path d="M1455.81 2240.93C1570.71 2325.31 1975.39 2023.49 1981.03 2017.05C2215.43 1795.14 1794.73 1707.1 1780.95 1705.84C1782.79 2007.54 1638.25 2105.64 1455.81 2240.93Z" fill="#37E7FF"/>
<path d="M1547 2237.48C1746.38 2221.06 1872.69 1988.89 1858.19 1904.11C1763.83 1719.74 1638.5 1421.51 1696.17 1750.17C1760.78 2118.36 1247.5 2262.14 1547 2237.48Z" fill="#FF37D3"/>
<path d="M1529.71 2195.28C1534.07 2258.67 1793.42 2098.78 1896.36 1975.55C2006.25 1749.03 1829.51 1569.06 1760.65 1818.95C1739.8 1894.63 1762.4 2003.78 1604.93 2103.31C1570.89 2124.82 1528.54 2178.21 1529.71 2195.28Z" fill="white"/>
</g>
<defs>
<filter id="filter0_f_262_279" x="1470.77" y="-2.10736" width="1240.48" height="1095.71" filterUnits="userSpaceOnUse" color-interpolation-filters="sRGB">
<feFlood flood-opacity="0" result="BackgroundImageFix"/>
<feBlend mode="normal" in="SourceGraphic" in2="BackgroundImageFix" result="shape"/>
<feGaussianBlur stdDeviation="50" result="effect1_foregroundBlur_262_279"/>
</filter>
<filter id="filter1_f_262_279" x="1433.68" y="2958.75" width="577.167" height="1129.63" filterUnits="userSpaceOnUse" color-interpolation-filters="sRGB">
<feFlood flood-opacity="0" result="BackgroundImageFix"/>
<feBlend mode="normal" in="SourceGraphic" in2="BackgroundImageFix" result="shape"/>
<feGaussianBlur stdDeviation="50" result="effect1_foregroundBlur_262_279"/>
</filter>
<filter id="filter2_f_262_279" x="1441.43" y="4923.15" width="644.077" height="1147.04" filterUnits="userSpaceOnUse" color-interpolation-filters="sRGB">
<feFlood flood-opacity="0" result="BackgroundImageFix"/>
<feBlend mode="normal" in="SourceGraphic" in2="BackgroundImageFix" result="shape"/>
<feGaussianBlur stdDeviation="50" result="effect1_foregroundBlur_262_279"/>
</filter>
<filter id="filter3_f_262_279" x="236.814" y="-518.419" width="735.736" height="714.491" filterUnits="userSpaceOnUse" color-interpolation-filters="sRGB">
<feFlood flood-opacity="0" result="BackgroundImageFix"/>
<feBlend mode="normal" in="SourceGraphic" in2="BackgroundImageFix" result="shape"/>
<feGaussianBlur stdDeviation="50" result="effect1_foregroundBlur_262_279"/>
</filter>
<filter id="filter4_f_262_279" x="198.031" y="-480.776" width="833.088" height="688.666" filterUnits="userSpaceOnUse" color-interpolation-filters="sRGB">
<feFlood flood-opacity="0" result="BackgroundImageFix"/>
<feBlend mode="normal" in="SourceGraphic" in2="BackgroundImageFix" result="shape"/>
<feGaussianBlur stdDeviation="50" result="effect1_foregroundBlur_262_279"/>
</filter>
<filter id="filter5_f_262_279" x="-832.253" y="457.543" width="1038.07" height="1509.18" filterUnits="userSpaceOnUse" color-interpolation-filters="sRGB">
<feFlood flood-opacity="0" result="BackgroundImageFix"/>
<feBlend mode="normal" in="SourceGraphic" in2="BackgroundImageFix" result="shape"/>
<feGaussianBlur stdDeviation="50" result="effect1_foregroundBlur_262_279"/>
</filter>
<filter id="filter6_f_262_279" x="-677.53" y="408.396" width="919.512" height="1589.63" filterUnits="userSpaceOnUse" color-interpolation-filters="sRGB">
<feFlood flood-opacity="0" result="BackgroundImageFix"/>
<feBlend mode="normal" in="SourceGraphic" in2="BackgroundImageFix" result="shape"/>
<feGaussianBlur stdDeviation="50" result="effect1_foregroundBlur_262_279"/>
</filter>
<filter id="filter7_f_262_279" x="-1053.92" y="1935.45" width="1279.54" height="1351.1" filterUnits="userSpaceOnUse" color-interpolation-filters="sRGB">
<feFlood flood-opacity="0" result="BackgroundImageFix"/>
<feBlend mode="normal" in="SourceGraphic" in2="BackgroundImageFix" result="shape"/>
<feGaussianBlur stdDeviation="50" result="effect1_foregroundBlur_262_279"/>
</filter>
<filter id="filter9_f_262_279" x="1352.41" y="1502.94" width="912.403" height="989.754" filterUnits="userSpaceOnUse" color-interpolation-filters="sRGB">
<feFlood flood-opacity="0" result="BackgroundImageFix"/>
<feBlend mode="normal" in="SourceGraphic" in2="BackgroundImageFix" result="shape"/>
<feGaussianBlur stdDeviation="50" result="effect1_foregroundBlur_262_279"/>
</filter>
</defs>
</svg>
