<svg width="5480" height="720" viewBox="0 0 5480 720" fill="none" xmlns="http://www.w3.org/2000/svg">
<path d="M719.46 340.29C718.15 315.9 714.41 292.15 708.47 269.29C704.93 255.62 700.6 242.27 695.53 229.29C670.07 163.96 626.07 107.89 570 67.57C533.25 41.12 491.31 21.44 446 10.34C418.44 3.58 389.64 0 360 0C330.36 0 301.56 3.58 274 10.34C228.69 21.44 186.75 41.13 150 67.57C93.93 107.9 49.93 163.96 24.47 229.29C19.41 242.27 15.07 255.62 11.53 269.29C5.59 292.15 1.84999 315.9 0.539993 340.29C0.179993 346.82 0 353.39 0 360C0 366.81 0.190007 373.57 0.570007 380.29C1.88001 403.97 5.48 427.05 11.16 449.29C14.65 462.95 18.92 476.3 23.93 489.29C49.3 555.23 93.52 611.81 150 652.43C186.75 678.87 228.69 698.56 274 709.66C301.56 716.42 330.36 720 360 720C389.64 720 418.44 716.42 446 709.66C491.31 698.56 533.25 678.88 570 652.43C626.48 611.81 670.7 555.23 696.08 489.29C701.09 476.3 705.35 462.95 708.84 449.29C714.52 427.05 718.12 403.97 719.43 380.29C719.81 373.57 720 366.81 720 360C720 353.39 719.82 346.82 719.46 340.29Z" fill="white"/>
<path d="M248.979 342.319L342.319 248.979C350.129 241.169 350.129 228.509 342.319 220.699C334.509 212.889 321.849 212.889 314.039 220.699L220.699 314.039C212.889 321.849 212.889 334.509 220.699 342.319C228.509 350.129 241.169 350.129 248.979 342.319Z" fill="black"/>
<path d="M469.6 376.26L376.26 469.6C368.45 477.41 368.45 490.07 376.26 497.88C384.07 505.69 396.73 505.69 404.54 497.88L497.88 404.54C505.69 396.73 505.69 384.07 497.88 376.26C490.08 368.45 477.41 368.45 469.6 376.26Z" fill="black"/>
<path d="M480.21 211.51L211.51 480.21C203.7 488.02 203.7 500.68 211.51 508.49C219.32 516.3 231.98 516.3 239.79 508.49L508.49 239.79C516.3 231.98 516.3 219.32 508.49 211.51C500.68 203.7 488.02 203.7 480.21 211.51Z" fill="black"/>
<path d="M1145.18 226.391C1163.33 234.693 1177.43 246.536 1187.24 261.919C1197.05 277.302 1201.96 295.372 1201.96 316.371C1201.96 337.127 1197.05 355.196 1187.24 370.579C1177.43 386.085 1163.33 397.927 1145.18 406.107C1127.03 414.288 1105.57 418.439 1080.79 418.439H1027.08C1025.73 418.439 1024.63 419.537 1024.63 420.88V493.89C1024.63 495.233 1023.52 496.332 1022.18 496.332H962.453C961.104 496.332 960 495.233 960 493.89V216.379C960 215.036 961.104 213.938 962.453 213.938H1080.79C1105.57 213.938 1127.03 218.089 1145.18 226.391ZM1121.51 352.51C1131.56 344.086 1136.71 331.999 1136.71 316.371C1136.71 300.499 1131.69 288.29 1121.51 279.866C1111.45 271.442 1096.61 267.169 1077.24 267.169H1027.08C1025.73 267.169 1024.63 268.268 1024.63 269.611V362.765C1024.63 364.108 1025.73 365.207 1027.08 365.207H1077.24C1096.61 365.207 1111.33 361.056 1121.51 352.51Z" fill="white"/>
<path d="M1468.11 407.939C1467.26 406.718 1467.75 405.009 1469.1 404.276C1486.14 396.218 1499.39 384.986 1508.95 370.579C1518.88 355.44 1523.91 337.249 1523.91 316.371C1523.91 295.372 1519.01 277.18 1509.2 261.919C1499.39 246.536 1485.28 234.815 1467.13 226.391C1448.98 218.089 1427.52 213.938 1402.75 213.938H1284.41C1283.06 213.938 1281.96 215.036 1281.96 216.379V264.727C1281.96 266.07 1283.06 267.169 1284.41 267.169H1346.58H1359.83H1399.19C1418.57 267.169 1433.29 271.442 1443.47 279.866C1453.52 288.291 1458.67 300.5 1458.67 316.371C1458.67 331.999 1453.64 344.086 1443.47 352.632C1433.41 361.301 1418.57 365.574 1399.19 365.574H1359.83H1346.58H1284.41C1283.06 365.574 1281.96 366.673 1281.96 368.016V493.891C1281.96 495.234 1283.06 496.333 1284.41 496.333H1344.13C1345.48 496.333 1346.58 495.234 1346.58 493.891V420.148C1346.58 418.805 1347.69 417.706 1349.04 417.706H1402.75H1404.59C1405.45 417.706 1406.18 418.073 1406.68 418.805L1459.04 495.356C1459.53 495.966 1460.27 496.455 1461.12 496.455H1524.53C1526.49 496.455 1527.71 494.257 1526.49 492.67L1468.11 407.939Z" fill="white"/>
<path d="M2030.54 490.656C2015.33 483.819 2002.82 474.174 1992.89 461.721C1992.15 460.866 1992.15 459.523 1992.89 458.669L2025.51 418.989C2026.49 417.769 2028.33 417.769 2029.31 418.989C2044.03 438.035 2060.7 447.559 2079.34 447.559C2105.71 447.559 2118.83 431.931 2118.83 400.798V268.941C2118.83 267.598 2117.73 266.499 2116.38 266.499H2023.18C2021.83 266.499 2020.73 265.4 2020.73 264.057V216.442C2020.73 215.099 2021.83 214 2023.18 214H2180.52C2181.87 214 2182.97 215.099 2182.97 216.442V397.135C2182.97 431.809 2174.51 457.814 2157.46 475.151C2140.42 492.488 2115.52 501.156 2082.53 501.156C2063.65 501.278 2046.36 497.738 2030.54 490.656Z" fill="white"/>
<path d="M3031.46 267.169H2947.09C2945.74 267.169 2944.63 266.07 2944.63 264.727V216.379C2944.63 215.036 2945.74 213.938 2947.09 213.938H3185.36C3186.71 213.938 3187.81 215.036 3187.81 216.379V264.727C3187.81 266.07 3186.71 267.169 3185.36 267.169H3100.99C3099.64 267.169 3098.54 268.268 3098.54 269.611V493.89C3098.54 495.233 3097.43 496.332 3096.08 496.332H3036.36C3035.01 496.332 3033.91 495.233 3033.91 493.89V269.611C3033.91 268.268 3032.81 267.169 3031.46 267.169Z" fill="white"/>
<path d="M1681.3 487.034C1658 474.336 1639.85 457 1626.72 434.779C1613.6 412.559 1606.98 387.652 1606.98 359.938C1606.98 332.223 1613.6 307.317 1626.72 285.097C1639.85 262.876 1658.12 245.539 1681.3 232.842C1704.6 220.145 1730.72 213.918 1759.66 213.918C1788.6 213.918 1814.72 220.267 1837.78 232.842C1860.95 245.539 1879.1 262.876 1892.35 285.097C1905.59 307.317 1912.34 332.223 1912.34 359.938C1912.34 387.652 1905.71 412.559 1892.35 434.779C1879.1 457 1860.83 474.336 1837.78 487.034C1814.6 499.731 1788.6 505.958 1759.66 505.958C1730.72 505.958 1704.6 499.609 1681.3 487.034ZM1804.3 438.808C1817.54 431.117 1827.97 420.495 1835.57 406.699C1843.17 392.902 1846.97 377.397 1846.97 359.938C1846.97 342.479 1843.17 326.851 1835.57 313.177C1827.97 299.503 1817.54 288.759 1804.3 281.068C1791.05 273.376 1776.09 269.591 1759.66 269.591C1743.23 269.591 1728.26 273.376 1715.02 281.068C1701.78 288.759 1691.35 299.381 1683.75 313.177C1676.15 326.851 1672.34 342.479 1672.34 359.938C1672.34 377.397 1676.15 393.024 1683.75 406.699C1691.35 420.373 1701.78 431.117 1715.02 438.808C1728.26 446.5 1743.23 450.285 1759.66 450.285C1776.21 450.285 1791.05 446.378 1804.3 438.808Z" fill="white"/>
<path d="M2282.97 446.395V494.01C2282.97 495.353 2284.07 496.452 2285.42 496.452H2496.6C2497.94 496.452 2499.05 495.353 2499.05 494.01V446.395C2499.05 445.052 2497.94 443.953 2496.6 443.953H2347.23H2285.54C2284.07 443.953 2282.97 445.052 2282.97 446.395Z" fill="white"/>
<path d="M2499.05 263.262V216.379C2499.05 215.036 2497.94 213.938 2496.6 213.938H2285.42C2284.07 213.938 2282.97 215.036 2282.97 216.379V263.262C2282.97 264.605 2284.07 265.704 2285.42 265.704H2496.6C2497.94 265.704 2499.05 264.605 2499.05 263.262Z" fill="white"/>
<path d="M2282.97 330.291V375.831C2282.97 377.174 2284.07 378.273 2285.42 378.273H2496.84C2498.19 378.273 2499.29 377.174 2499.29 375.831V330.291C2499.29 328.948 2498.19 327.85 2496.84 327.85H2285.42C2284.07 327.85 2282.97 328.948 2282.97 330.291Z" fill="white"/>
<path d="M2673.24 487.156C2650.31 474.703 2632.16 457.244 2619.04 435.146C2605.92 412.925 2599.29 387.897 2599.29 359.938C2599.29 331.979 2605.92 306.829 2619.04 284.73C2632.16 262.51 2650.31 245.173 2673.24 232.72C2696.17 220.267 2722.05 213.918 2750.75 213.918C2774.9 213.918 2796.86 218.191 2816.35 226.86C2835.12 235.162 2851.06 246.882 2864.06 262.144C2864.92 263.12 2864.79 264.585 2863.81 265.562L2825.92 300.968C2824.94 301.945 2823.34 301.823 2822.36 300.846C2803.72 280.091 2780.91 269.713 2753.81 269.713C2736.52 269.713 2721.07 273.498 2707.58 281.19C2693.97 288.882 2683.42 299.503 2675.94 313.3C2668.34 326.974 2664.53 342.601 2664.53 360.06C2664.53 377.519 2668.34 393.147 2675.94 406.821C2683.54 420.495 2694.09 431.239 2707.58 438.931C2721.19 446.622 2736.52 450.407 2753.81 450.407C2780.91 450.407 2803.72 439.907 2822.36 418.908C2823.34 417.809 2824.94 417.809 2825.92 418.664L2863.81 454.07C2864.79 454.924 2864.92 456.39 2864.06 457.366C2851.06 472.872 2834.99 484.837 2816.11 493.139C2796.49 501.685 2774.54 506.08 2750.38 506.08C2721.93 505.958 2696.17 499.732 2673.24 487.156Z" fill="white"/>
<path d="M3636.41 355.503H3690.49C3691.84 355.503 3692.95 356.601 3692.95 357.944V468.924C3692.95 469.657 3692.58 470.39 3691.97 470.878C3677 482.11 3659.84 490.657 3640.34 496.761C3620.35 502.988 3600.36 506.04 3580.12 506.04C3551.18 506.04 3525.06 499.813 3502.01 487.238C3478.95 474.663 3460.8 457.326 3447.56 435.228C3434.43 413.007 3427.81 387.979 3427.81 360.02C3427.81 332.061 3434.43 306.911 3447.56 284.812C3460.68 262.592 3478.95 245.255 3502.37 232.802C3525.8 220.349 3552.04 214 3581.35 214C3605.75 214 3627.95 218.151 3647.94 226.453C3667.07 234.511 3683.38 245.988 3696.63 261.005C3697.48 261.981 3697.36 263.447 3696.5 264.423L3658.49 299.952C3657.51 300.928 3656.03 300.806 3655.05 299.829C3635.43 279.807 3612.01 269.673 3584.54 269.673C3566.76 269.673 3550.94 273.458 3537.08 281.028C3523.22 288.597 3512.55 299.219 3504.83 312.893C3497.1 326.567 3493.3 342.317 3493.3 360.142C3493.3 377.601 3497.1 393.229 3504.83 406.903C3512.55 420.577 3523.22 431.321 3536.96 439.012C3550.69 446.704 3566.27 450.489 3583.8 450.489C3601.83 450.489 3618.14 446.704 3632.73 439.134C3633.59 438.768 3634.08 437.914 3634.08 436.937V358.189C3633.96 356.601 3635.06 355.503 3636.41 355.503Z" fill="white"/>
<path d="M4169.45 214H4229.18C4230.52 214 4231.63 215.099 4231.63 216.442V440.722C4231.63 442.064 4232.73 443.163 4234.08 443.163H4369.1C4370.45 443.163 4371.55 444.262 4371.55 445.605V493.953C4371.55 495.296 4370.45 496.395 4369.1 496.395H4169.45C4168.1 496.395 4167 495.296 4167 493.953V216.442C4167 215.099 4168.1 214 4169.45 214Z" fill="white"/>
<path d="M5370.81 397.013V493.953C5370.81 495.296 5369.7 496.395 5368.35 496.395H5308.63C5307.28 496.395 5306.18 495.296 5306.18 493.953V396.159C5306.18 395.67 5306.06 395.304 5305.81 394.938L5200.35 217.663C5199.37 216.076 5200.59 214 5202.43 214H5265.34C5266.2 214 5267.06 214.488 5267.43 215.221L5339.17 335.968C5340.15 337.555 5342.48 337.555 5343.34 335.968L5415.08 215.221C5415.57 214.488 5416.3 214 5417.16 214H5474.8C5476.64 214 5477.87 216.076 5476.89 217.663L5370.93 395.792C5370.93 396.159 5370.81 396.647 5370.81 397.013Z" fill="white"/>
<path d="M3962.27 214H3901.69C3900.71 214 3899.85 214.61 3899.48 215.465L3777.22 492.976C3776.48 494.563 3777.71 496.395 3779.43 496.395H3840.25C3841.23 496.395 3842.09 495.784 3842.58 494.93L3866.74 435.96L3887.47 386.391L3929.41 283.836C3930.26 281.76 3933.08 281.76 3933.94 283.836L3975.88 386.391L3996.24 435.96L4020.28 494.93C4020.64 495.906 4021.5 496.395 4022.61 496.395H4085.03C4086.74 496.395 4087.97 494.563 4087.23 492.976L3964.6 215.465C3964.11 214.61 3963.25 214 3962.27 214Z" fill="white"/>
<path d="M4637.27 214H4576.69C4575.71 214 4574.85 214.61 4574.48 215.465L4452.22 492.976C4451.48 494.563 4452.71 496.395 4454.43 496.395H4515.25C4516.23 496.395 4517.09 495.784 4517.58 494.93L4541.74 435.96L4562.46 386.391L4604.4 283.836C4605.26 281.76 4608.08 281.76 4608.94 283.836L4650.88 386.391L4671.24 435.96L4695.28 494.93C4695.64 495.906 4696.5 496.395 4697.61 496.395H4760.03C4761.74 496.395 4762.97 494.563 4762.23 492.976L4639.6 215.465C4639.11 214.61 4638.25 214 4637.27 214Z" fill="white"/>
<path d="M4948.3 256.854L4918.99 215.099C4918.5 214.488 4917.76 214 4917.02 214H4849.7C4847.74 214 4846.51 216.198 4847.74 217.907L4908.44 303.736C4909.42 305.079 4911.38 305.079 4912.36 303.858L4948.42 259.784C4948.79 258.929 4948.91 257.708 4948.3 256.854Z" fill="white"/>
<path d="M5050.44 401.413L5015 446.22C5014.39 447.074 5014.26 448.173 5014.88 449.15L5046.64 495.422C5047.13 496.032 5047.86 496.521 5048.72 496.521H5117.27C5119.24 496.521 5120.46 494.323 5119.24 492.614L5054.36 401.657C5053.38 400.192 5051.42 400.192 5050.44 401.413Z" fill="white"/>
<path d="M5017.93 350.375L5112.48 217.907C5113.58 216.32 5112.48 214 5110.51 214H5046.75C5045.89 214 5045.15 214.366 5044.66 215.099L4982.49 305.568C4982.49 305.69 4982.36 305.69 4982.36 305.69L4943 352.694L4942.87 352.817L4842.44 492.488C4841.33 494.075 4842.44 496.395 4844.4 496.395H4912.46C4913.32 496.395 4914.06 496.028 4914.55 495.296L4979.91 398.356L4980.03 398.234L5017.93 350.375Z" fill="white"/>
</svg>
