<svg width="132" height="25" viewBox="0 0 132 25" fill="none" xmlns="http://www.w3.org/2000/svg">
<path fill-rule="evenodd" clip-rule="evenodd" d="M0 23.9951L23.0574 4.79491C23.3399 4.54866 23.5687 4.24702 23.7297 3.90868C23.8908 3.57033 23.9806 3.20252 23.9936 2.82804C24.0066 2.45355 23.9425 2.08039 23.8053 1.73169C23.6681 1.38299 23.4608 1.0662 23.1961 0.800954C22.9308 0.535725 22.6137 0.327884 22.2647 0.190379C21.9156 0.0528726 21.542 -0.0113615 21.1671 0.00164499C20.7922 0.0146515 20.4239 0.104623 20.0852 0.265986C19.7465 0.427349 19.4446 0.656645 19.1983 0.93962L0 23.9951ZM11.1221 3.54308L1.41465 10.8231L8.69525 1.11642C8.84416 0.917958 9.03395 0.753783 9.25178 0.634973C9.4696 0.516162 9.71046 0.44549 9.95795 0.427743C10.2054 0.409996 10.4538 0.445583 10.6864 0.532098C10.9189 0.618614 11.1302 0.754043 11.3059 0.929229C11.4819 1.10471 11.6181 1.31598 11.7052 1.54872C11.7924 1.78145 11.8285 2.03022 11.811 2.27813C11.7936 2.52603 11.7231 2.76729 11.6042 2.98555C11.4854 3.20381 11.3209 3.39394 11.1221 3.54308ZM22.8762 15.2995L13.1687 22.5795L20.4493 12.8728C20.5983 12.6743 20.788 12.5101 21.0059 12.3913C21.2237 12.2725 21.4645 12.2018 21.712 12.1841C21.9594 12.1663 22.2078 12.2019 22.4404 12.2885C22.6729 12.375 22.8843 12.5104 23.06 12.6856C23.236 12.8611 23.3722 13.0724 23.4593 13.3051C23.5465 13.5378 23.5825 13.7866 23.5651 14.0345C23.5477 14.2824 23.4771 14.5236 23.3582 14.7419C23.2394 14.9602 23.075 15.1503 22.8762 15.2995Z" fill="white"/>
<path fill-rule="evenodd" clip-rule="evenodd" d="M36.8616 12.0012C36.8616 8.8322 39.5554 6.0881 43.2889 6.0881C45.1396 6.0881 46.7929 6.76346 47.9687 7.82477C48.039 7.88819 48.1473 7.88582 48.2127 7.81734L50.4609 5.46144C50.5262 5.39296 50.5238 5.28436 50.4542 5.22022C48.5972 3.50936 46.0486 2.48883 43.2889 2.48883C37.7645 2.48883 33.2623 6.65299 33.2623 12.0012C33.2623 17.3494 37.7645 21.5135 43.2889 21.5135C45.745 21.5135 48.1725 20.6899 49.9707 19.2775L50.5933 18.7886C50.6346 18.7561 50.6588 18.7064 50.6588 18.6538V17.8622V16.1023L50.6586 16.1022L50.6584 16.102V12.0013L50.6582 12.0011L50.658 12.0009V10.6299C50.658 10.5353 50.5813 10.4585 50.4866 10.4585H45.9333C45.8862 10.4585 45.8411 10.478 45.8087 10.5123L42.8969 13.597C42.7938 13.7064 42.8713 13.8861 43.0216 13.8861H46.8881C46.9828 13.8861 47.0595 13.9628 47.0595 14.0575V16.2855L47.0595 16.2855V16.8148C47.0595 16.8757 47.0273 16.9322 46.9743 16.9622C45.9298 17.552 44.6284 17.9143 43.2889 17.9143C39.5554 17.9143 36.8616 15.1702 36.8616 12.0012ZM107.557 2.91725H111.591C111.732 2.91725 111.812 3.07803 111.728 3.19108L105.154 12.0099C105.108 12.0713 105.109 12.1556 105.155 12.2164L111.722 20.8096C111.808 20.9223 111.727 21.085 111.585 21.085H107.219C107.165 21.085 107.114 21.0595 107.082 21.0161L102.898 15.4043C102.83 15.3124 102.692 15.3124 102.623 15.4043L98.44 21.016C98.4076 21.0594 98.3567 21.085 98.3026 21.085H93.9362C93.7943 21.085 93.7138 20.9223 93.8 20.8095L100.366 12.2164C100.413 12.1556 100.413 12.0713 100.368 12.0099L93.7935 3.19112C93.7092 3.07807 93.7899 2.91729 93.9309 2.91729H97.9644C98.0178 2.91729 98.0682 2.94218 98.1006 2.98462L102.625 8.9049C102.693 8.99467 102.828 8.99467 102.897 8.9049L107.421 2.98458C107.453 2.94215 107.504 2.91725 107.557 2.91725ZM66.2298 2.91725H62.3393C62.2715 2.91725 62.2101 2.9572 62.1826 3.01917L54.2791 20.8441C54.2288 20.9574 54.3118 21.085 54.4358 21.085H58.1731C58.2415 21.085 58.3033 21.0443 58.3304 20.9816L59.841 17.4857H68.7281L70.2387 20.9816C70.2658 21.0443 70.3276 21.085 70.396 21.085H74.1333C74.2573 21.085 74.3402 20.9574 74.29 20.8441L66.3865 3.01917C66.359 2.9572 66.2976 2.91725 66.2298 2.91725ZM67.3209 14.2292H61.2481L64.1272 7.56629C64.1868 7.42841 64.3823 7.42841 64.4419 7.56629L67.3209 14.2292ZM78.5102 2.91725C78.4156 2.91725 78.3388 2.99399 78.3388 3.08865V20.9136C78.3388 21.0082 78.4156 21.085 78.5102 21.085H82.2809L82.2863 21.0849L82.293 21.0846H88.5388C88.5913 21.0846 88.6408 21.0605 88.6733 21.0194L90.9734 18.106C91.0621 17.9936 90.982 17.8284 90.8388 17.8284H82.4523V3.08865C82.4523 2.99399 82.3755 2.91725 82.2809 2.91725H78.5102ZM131.299 2.91725C131.394 2.91725 131.471 2.99399 131.471 3.08865V6.17373C131.471 6.26839 131.394 6.34513 131.299 6.34513H120.673C120.579 6.34513 120.502 6.42186 120.502 6.51652V10.1159C120.502 10.2105 120.579 10.2873 120.673 10.2873H130.614C130.709 10.2873 130.785 10.364 130.785 10.4586V13.5437C130.785 13.6384 130.709 13.7151 130.614 13.7151H120.673C120.579 13.7151 120.502 13.7919 120.502 13.8865V17.4858C120.502 17.5804 120.579 17.6572 120.673 17.6572H131.642C131.737 17.6572 131.814 17.7339 131.814 17.8286V20.9136C131.814 21.0083 131.737 21.085 131.642 21.085L118.454 21.085H116.56C116.465 21.085 116.388 21.0083 116.388 20.9136V3.08866C116.388 2.994 116.465 2.91727 116.56 2.91727H117.496L117.496 2.91726L117.496 2.91725H131.299Z" fill="white"/>
</svg>
