<svg width="500" height="135" viewBox="0 0 500 135" fill="none" xmlns="http://www.w3.org/2000/svg">
<g clip-path="url(#clip0_438_202)">
<path d="M38.6956 0.687015C33.6788 0.712036 28.7159 1.73036 24.0905 3.68401C19.4652 5.63766 15.2679 8.48853 11.7384 12.0733C8.20895 15.6581 5.41635 19.9069 3.52017 24.5768C1.62399 29.2469 0.66139 34.2467 0.687276 39.2909V52.042H31.5693V33.5682C31.569 32.7006 31.7386 31.8415 32.0686 31.0398C32.3986 30.2382 32.8825 29.5098 33.4927 28.8963C34.1028 28.2828 34.8272 27.7963 35.6243 27.4643C36.4216 27.1323 37.2761 26.9616 38.139 26.9617H39.2523C40.1153 26.9616 40.9698 27.1323 41.7671 27.4643C42.5644 27.7962 43.2888 28.2828 43.8991 28.8963C44.5093 29.5098 44.9933 30.2382 45.3234 31.0398C45.6536 31.8415 45.8234 32.7005 45.8233 33.5682V83.0922C49.8788 83.0922 53.8947 82.2887 57.6415 80.7289C61.3884 79.1685 64.7929 76.8814 67.6606 73.9981C70.5281 71.1149 72.8028 67.6918 74.355 63.9246C75.9065 60.1573 76.7053 56.1195 76.7053 52.042V39.2909C76.7273 29.0708 72.7245 19.2575 65.5721 11.9957C62.0625 8.41222 57.8787 5.56682 53.2644 3.62531C48.6502 1.6838 43.6977 0.684913 38.6956 0.687015Z" fill="white"/>
<path d="M39.2538 108.165H38.1405C37.2777 108.166 36.4233 107.995 35.6262 107.663C34.829 107.331 34.1047 106.845 33.4946 106.231C32.8845 105.618 32.4006 104.89 32.0706 104.088C31.7405 103.287 31.5706 102.428 31.5708 101.56V52.0366C27.5152 52.0363 23.4993 52.8391 19.7523 54.3993C16.0054 55.9596 12.6009 58.2467 9.73313 61.13C6.86542 64.0133 4.59061 67.4364 3.03877 71.2038C1.48693 74.971 0.68841 79.0087 0.68876 83.0863V95.6598C0.637313 100.711 1.58245 105.723 3.46951 110.405C5.35657 115.087 8.1481 119.346 11.6826 122.937C15.2173 126.527 19.4247 129.377 24.0617 131.323C28.6988 133.268 33.6734 134.269 38.6978 134.269C43.7222 134.269 48.6968 133.268 53.3338 131.323C57.9708 129.377 62.1783 126.527 65.7129 122.937C69.2472 119.346 72.0391 115.087 73.9258 110.405C75.8131 105.723 76.7582 100.711 76.7067 95.6598V83.0863H45.8247V101.56C45.8247 102.428 45.6548 103.287 45.3245 104.088C44.9943 104.89 44.5103 105.618 43.9001 106.231C43.2899 106.845 42.5655 107.331 41.7682 107.663C40.971 107.995 40.1166 108.166 39.2538 108.165Z" fill="white"/>
<path d="M129.498 39.8726H118.675V95.0802H150.442V84.6715H129.499L129.498 39.8726Z" fill="white"/>
<path d="M185.112 60.2959C183.585 58.3884 181.63 56.872 179.407 55.8712C177.185 54.8705 174.758 54.4138 172.326 54.5387C169.784 54.5186 167.269 55.047 164.948 56.0881C162.627 57.1292 160.556 58.6589 158.873 60.5738C155.261 64.6435 153.264 69.9073 153.264 75.362C153.264 80.8167 155.261 86.0804 158.873 90.1498C160.556 92.0639 162.628 93.5935 164.948 94.634C167.269 95.6745 169.785 96.2027 172.326 96.1828C177.817 96.1828 182.079 94.2638 185.112 90.4252V95.079H195.231V55.6459H185.112V60.2959ZM182.015 83.3661C180.994 84.3929 179.775 85.1992 178.433 85.735C177.091 86.2707 175.653 86.5241 174.21 86.4808C172.772 86.5268 171.339 86.2748 170.003 85.7384C168.667 85.2027 167.455 84.395 166.443 83.3661C164.473 81.1697 163.383 78.3174 163.383 75.3599C163.383 72.4025 164.473 69.5502 166.443 67.354C167.455 66.3261 168.668 65.5189 170.003 64.9832C171.34 64.4475 172.772 64.1946 174.21 64.2403C175.653 64.1972 177.09 64.4514 178.432 64.9868C179.775 65.5222 180.994 66.3277 182.015 67.354C184.007 69.5392 185.112 72.3957 185.112 75.3599C185.112 78.3242 184.007 81.1807 182.015 83.3661Z" fill="white"/>
<path d="M221.304 82.15L211.075 55.6455H200.014L216.09 93.8189C215.418 96.0971 214.094 98.1259 212.285 99.6548C210.384 100.951 208.103 101.563 205.812 101.391V110.857C210.278 111.272 214.744 110.052 218.387 107.423C221.753 104.868 224.456 100.776 226.498 95.1465L240.797 55.6481H229.972L221.304 82.15Z" fill="white"/>
<path d="M262.695 54.5417C259.936 54.4442 257.187 54.923 254.622 55.9482C252.058 56.9734 249.731 58.5227 247.793 60.4978C244.048 64.545 241.973 69.8716 241.988 75.3991C242.001 80.9266 244.104 86.2418 247.869 90.2693C251.793 94.2116 256.996 96.1835 263.48 96.1841C271.008 96.1841 276.709 93.3716 280.58 87.7473L272.422 83.0131C271.385 84.3373 270.044 85.3874 268.513 86.0742C266.983 86.7611 265.31 87.0639 263.637 86.9568C257.622 86.9568 253.935 84.4863 252.576 79.5447H282.149C282.402 78.1649 282.533 76.7652 282.54 75.362C282.691 69.8696 280.675 64.54 276.933 60.5353C275.121 58.5751 272.913 57.0262 270.457 55.9926C268.002 54.9589 265.356 54.4644 262.695 54.5417ZM252.42 71.6567C252.867 69.3394 254.118 67.2573 255.948 65.7796C257.896 64.3326 260.275 63.5955 262.694 63.6902C264.905 63.6612 267.066 64.3535 268.853 65.6632C270.753 67.1347 272.029 69.2762 272.421 71.6553L252.42 71.6567Z" fill="white"/>
<path d="M299.719 62.4303V55.6458H289.6V95.0805H299.719V76.2316C299.719 72.4459 300.935 69.7378 303.366 68.1073C305.8 66.4768 308.747 65.8032 311.643 66.2145V54.8605C309.099 54.828 306.593 55.4816 304.386 56.7533C302.207 58.025 300.551 60.0386 299.719 62.4303Z" fill="white"/>
<path d="M360.98 48.4109V39.8726H324.987V50.2838H347.265L324.407 86.3851V95.0788H361.417V84.6702H338.119L360.98 48.4109Z" fill="white"/>
<path d="M385.306 54.5417C382.547 54.4442 379.798 54.923 377.232 55.9482C374.667 56.9734 372.341 58.5227 370.402 60.4979C366.657 64.5449 364.581 69.8716 364.596 75.3991C364.611 80.9273 366.714 86.2425 370.48 90.2693C374.403 94.2116 379.606 96.1835 386.089 96.1841C393.618 96.1841 399.318 93.3716 403.19 87.7473L395.032 83.0131C393.995 84.3366 392.653 85.3874 391.123 86.0742C389.593 86.7611 387.92 87.0639 386.247 86.9568C380.232 86.9568 376.545 84.4863 375.187 79.5447H404.76C405.012 78.1649 405.143 76.7652 405.151 75.362C405.301 69.8696 403.285 64.54 399.543 60.5354C397.731 58.575 395.523 57.0262 393.068 55.9926C390.613 54.9589 387.966 54.4643 385.306 54.5417ZM375.03 71.6567C375.478 69.3394 376.729 67.2569 378.561 65.7796C380.507 64.3321 382.886 63.5949 385.306 63.6902C387.517 63.6605 389.678 64.3529 391.464 65.6632C393.366 67.1345 394.64 69.2762 395.032 71.6553L375.03 71.6567Z" fill="white"/>
<path d="M422.332 62.4303V55.6458H412.212V95.0806H422.332V76.2317C422.332 72.4459 423.547 69.7378 425.979 68.1073C428.413 66.4769 431.358 65.8033 434.254 66.2146V54.8605C431.711 54.8284 429.206 55.4819 426.999 56.7533C424.819 58.0248 423.163 60.0385 422.332 62.4303Z" fill="white"/>
<path d="M457.314 54.5424C452.566 54.595 447.983 56.2984 444.342 59.363C440.701 62.4276 438.228 66.6648 437.341 71.3549C436.455 76.0451 437.211 80.8989 439.48 85.0925C441.748 89.2862 445.391 92.5603 449.79 94.3604C454.187 96.1599 459.069 96.3741 463.606 94.9655C468.143 93.5575 472.055 90.6138 474.678 86.6344C477.301 82.655 478.474 77.8858 477.997 73.1358C477.52 68.3863 475.422 63.9489 472.06 60.5774C470.145 58.6096 467.847 57.0585 465.31 56.0204C462.774 54.9822 460.052 54.4792 457.314 54.5424ZM464.922 83.1722C463.93 84.1791 462.743 84.9717 461.435 85.4998C460.126 86.028 458.724 86.2814 457.314 86.2443C455.909 86.2842 454.512 86.0321 453.208 85.5033C451.905 84.9744 450.724 84.1811 449.741 83.1722C447.799 81.0403 446.722 78.2546 446.722 75.3638C446.722 72.4724 447.799 69.6866 449.741 67.5553C450.724 66.5465 451.905 65.7529 453.209 65.2243C454.512 64.6956 455.909 64.443 457.314 64.483C458.724 64.4458 460.126 64.6995 461.434 65.2278C462.743 65.7562 463.93 66.5482 464.922 67.5553C466.889 69.675 467.983 72.4648 467.983 75.3638C467.983 78.2622 466.889 81.0527 464.922 83.1722Z" fill="white"/>
<path d="M499.313 82.9326H486.997V95.0789H499.313V82.9326Z" fill="white"/>
</g>
<defs>
<clipPath id="clip0_438_202">
<rect width="500" height="134.615" fill="white"/>
</clipPath>
</defs>
</svg>
