<svg width="786" height="248" viewBox="0 0 786 248" fill="none" xmlns="http://www.w3.org/2000/svg">
<path d="M233.65 162.733V80.5397L219.434 75.5491L220.72 69.3487H255.049C261.048 69.3487 266.064 69.4747 270.096 69.7268C274.129 69.9788 278.137 70.6341 282.119 71.6928C286.152 72.701 289.731 74.2889 292.856 76.4565C296.335 78.8762 299.057 82.1276 301.023 86.2109C303.039 90.2437 304.048 94.9318 304.048 100.275C304.048 105.064 303.039 109.399 301.023 113.281C299.007 117.112 296.184 120.313 292.554 122.884C288.723 125.606 284.085 127.598 278.641 128.858C273.247 130.068 267.929 130.673 262.686 130.673L263.593 125.682C268.937 123.161 272.995 120.868 275.767 118.801C278.59 116.684 280.657 114.163 281.968 111.239C283.279 108.316 283.934 104.485 283.934 99.746C283.934 91.3275 281.086 85.2027 275.389 81.3715C269.743 77.5403 262.384 75.5743 253.31 75.4735V162.809L271.533 167.8L270.323 174H218.829L220.19 167.573L233.65 162.733ZM472.618 167.421L471.105 174H422.939L424.073 167.573L437.684 162.733V80.5397L423.544 75.4735L424.829 69.3487H472.164L470.803 76.1541L457.041 80.9934V116.079H501.956V80.7666L487.363 75.776L488.799 69.3487H536.134L535 75.6247L521.314 80.6153V162.809L535.605 167.875L534.168 174H486.002L487.287 167.346L501.956 162.507V126.136C486.077 126.942 471.105 127.522 457.041 127.875V162.431L472.618 167.421ZM670.829 162.733V80.5397L656.689 75.5491L657.975 69.3487H692.606C701.781 69.3487 709.998 69.9284 717.257 71.0878C724.566 72.1969 730.893 74.4401 736.236 77.8176C743.495 82.4553 748.763 88.4541 752.04 95.814C755.367 103.174 757.03 111.542 757.03 120.918C757.03 128.681 755.997 135.814 753.93 142.317C751.863 148.82 748.662 154.365 744.327 158.953C740.294 163.237 735.43 166.489 729.733 168.707C724.037 170.875 717.988 172.311 711.586 173.017C705.234 173.672 697.925 174 689.657 174H656.311L657.597 167.573L670.829 162.733ZM690.413 166.817C701.1 165.405 709.746 163.111 716.349 159.936C722.953 156.76 727.919 152.097 731.246 145.947C734.623 139.746 736.312 131.53 736.312 121.296C736.312 105.165 730.691 93.2179 719.45 85.4547C716.274 83.2367 712.09 81.3463 706.898 79.7836C701.705 78.1705 696.211 76.9858 690.413 76.2297V166.817ZM256.113 228.684C253.779 228.684 251.726 228.163 249.953 227.12C248.193 226.077 246.824 224.584 245.846 222.642C244.868 220.699 244.379 218.411 244.379 215.778C244.379 212.975 244.836 210.413 245.748 208.092C246.661 205.759 247.984 203.921 249.718 202.578C250.774 201.769 251.908 201.183 253.121 200.818C254.333 200.44 255.689 200.251 257.188 200.251C257.84 200.251 258.505 200.296 259.183 200.387C259.861 200.479 260.624 200.609 261.471 200.779L263.974 200.427L264.717 207.584L262.84 208.034L261.002 203.966C260.154 203.601 259.352 203.334 258.596 203.164C257.853 202.995 256.973 202.91 255.956 202.91C255.005 202.91 254.092 203.06 253.219 203.36C252.358 203.647 251.68 204.005 251.185 204.435C250.324 205.205 249.62 206.417 249.073 208.073C248.538 209.729 248.271 211.775 248.271 214.213C248.271 215.7 248.473 217.166 248.877 218.613C249.294 220.047 249.881 221.26 250.637 222.251C251.498 223.372 252.482 224.2 253.59 224.734C254.698 225.269 255.872 225.536 257.11 225.536C257.736 225.536 258.577 225.393 259.633 225.106C260.689 224.806 261.719 224.473 262.723 224.108C263.726 223.743 264.424 223.463 264.815 223.268L265.695 224.617C264.209 226.038 262.736 227.074 261.275 227.726C259.828 228.365 258.107 228.684 256.113 228.684ZM348.64 226.064L348.229 228H338.08L338.393 226.318L341.6 225.399L339.253 219.18C336.255 219.363 333.308 219.454 330.414 219.454H329.593L327.578 225.301L331.607 226.377L331.255 228H321.536L321.888 226.142L324.919 225.223L333.738 200.935L336.066 200.251L345.687 225.399L348.64 226.064ZM338.412 216.892L334.09 205.413C333.947 206.3 332.735 210.126 330.453 216.892H338.412ZM408.822 225.282V203.634L405.145 202.539L405.478 200.935H412.909C414.33 200.935 415.556 200.974 416.585 201.052C417.628 201.118 418.678 201.3 419.734 201.6C420.79 201.9 421.722 202.356 422.53 202.969C423.339 203.595 423.971 204.409 424.427 205.413C424.897 206.404 425.131 207.577 425.131 208.933C425.131 210.159 424.877 211.267 424.369 212.258C423.86 213.236 423.156 214.063 422.257 214.741C421.331 215.445 420.21 215.967 418.893 216.306C417.576 216.632 416.286 216.795 415.021 216.795L415.256 215.504C416.82 214.839 417.993 214.252 418.776 213.744C419.558 213.222 420.132 212.584 420.497 211.827C420.875 211.071 421.064 210.061 421.064 208.796C421.064 206.58 420.281 204.99 418.717 204.025C417.166 203.06 415.125 202.558 412.596 202.519V225.301L417.172 226.377L416.84 228H404.989L405.341 226.338L408.822 225.282ZM486.78 225.262V203.634L483.104 202.558L483.436 200.935H494.387L494.074 202.597L490.535 203.673V225.262L494.309 226.357L493.918 228H482.967L483.299 226.299L486.78 225.262ZM562.47 225.184V202.832L555.997 203.516L553.259 208.405L551.46 207.995L553.063 200.759L555.625 200.935H573.831L576.295 200.7L577.078 208.053L575.337 208.581L572.971 203.536L566.224 202.793V225.204L570.507 226.24L570.155 228H558.383L558.735 226.24L562.47 225.184ZM657.343 226.064L656.933 228H646.783L647.096 226.318L650.303 225.399L647.957 219.18C644.958 219.363 642.012 219.454 639.118 219.454H638.296L636.282 225.301L640.31 226.377L639.958 228H630.239L630.591 226.142L633.622 225.223L642.442 200.935L644.769 200.251L654.391 225.399L657.343 226.064ZM647.116 216.892L642.794 205.413C642.651 206.3 641.438 210.126 639.157 216.892H647.116ZM734.089 221.312L735.575 221.703L734.148 228H713.732L714.025 226.318L717.525 225.243V203.595L713.869 202.578L714.201 200.935H725.25L724.937 202.617L721.28 203.692V226.044L731.547 224.969L734.089 221.312Z" fill="#FAFAFA"/>
<path d="M185.929 159.332L149.022 223.184C145.69 228.949 139.536 232.5 132.876 232.5L59.0246 232.5C52.3653 232.5 46.2114 228.949 42.8788 223.184L5.97203 159.332C2.63453 153.558 2.63453 146.442 5.97203 140.667L42.8788 76.8164C46.2114 71.051 52.3654 67.5 59.0247 67.5L132.876 67.5C139.536 67.5 145.69 71.051 149.022 76.8164L185.929 140.667C189.267 146.442 189.267 153.558 185.929 159.332Z" fill="white" stroke="#C4C4C4"/>
<mask id="mask0_160_790" style="mask-type:alpha" maskUnits="userSpaceOnUse" x="2" y="67" width="187" height="166">
<path d="M185.929 159.332L149.022 223.184C145.69 228.949 139.536 232.5 132.876 232.5L59.0246 232.5C52.3653 232.5 46.2114 228.949 42.8788 223.184L5.97203 159.332C2.63453 153.558 2.63453 146.442 5.97203 140.667L42.8788 76.8164C46.2114 71.051 52.3654 67.5 59.0247 67.5L132.876 67.5C139.536 67.5 145.69 71.051 149.022 76.8164L185.929 140.667C189.267 146.442 189.267 153.558 185.929 159.332Z" fill="white" stroke="#C4C4C4"/>
</mask>
<g mask="url(#mask0_160_790)">
<path d="M-37.771 178.543C3.88271 171.78 92.7234 133.262 114.857 33.2934C142.222 -90.3044 159.211 196.603 162.256 201.539C162.381 201.548 162.415 201.567 162.351 201.599C162.321 201.614 162.289 201.594 162.256 201.539C157.989 201.263 47.2543 214.247 -9.18211 220.966L-37.771 178.543Z" fill="#BDBDBD"/>
<path d="M-11.0278 199.754C30.6259 192.992 119.467 154.473 141.6 54.5045C168.965 -69.0933 185.954 217.814 188.999 222.751C189.124 222.759 189.158 222.778 189.094 222.81C189.064 222.825 189.032 222.805 188.999 222.751C184.732 222.474 73.9975 235.458 17.5611 242.177L-11.0278 199.754Z" fill="#666666"/>
<path d="M15.7173 214.51C57.371 207.747 146.212 169.229 168.345 69.26C195.71 -54.3378 212.699 232.57 215.744 237.506C215.87 237.514 215.903 237.534 215.839 237.566C215.809 237.581 215.777 237.561 215.744 237.506C211.477 237.23 100.743 250.214 44.3062 256.932L15.7173 214.51Z" fill="#3F3F3F"/>
</g>
<path fill-rule="evenodd" clip-rule="evenodd" d="M148.227 223.716L185.995 158.376C188.99 153.194 188.99 146.806 185.995 141.624L148.227 76.2837C145.236 71.1092 139.713 67.9222 133.736 67.9222L58.1655 67.9222C52.1888 67.9222 46.6657 71.1092 43.6747 76.2837L5.90706 141.624C2.91165 146.806 2.91167 153.194 5.90706 158.376L43.6747 223.716C46.6657 228.891 52.1888 232.078 58.1655 232.078H133.736C139.713 232.078 145.236 228.891 148.227 223.716ZM186.793 158.837C189.953 153.37 189.953 146.63 186.793 141.163L149.025 75.8222C145.87 70.3626 140.042 67 133.736 67L58.1655 67C51.8595 67 46.032 70.3626 42.8763 75.8222L5.10861 141.163C1.94817 146.63 1.94817 153.37 5.10861 158.837L42.8763 224.178C46.032 229.637 51.8595 233 58.1655 233H133.736C140.042 233 145.87 229.637 149.025 224.178L186.793 158.837Z" fill="#C4C4C4"/>
</svg>
