<svg width="100%" height="100%" viewBox="0 0 107 46" xmlns="http://www.w3.org/2000/svg">
    <path d="m6.041 23.633c-0.16162-0.9418-0.36224-1.8558-0.8248-2.5858-0.62974-0.992-1.7332-1.6663-3.9178-1.683l-0.03344 1.2427c0.77464-0.0223 1.5214 0.0502 2.1512 0.4514 0.54057 0.34 0.99198 0.9028 1.3375 1.8391-1.9004-0.6465-2.9759-0.4514-3.7394 0.039-0.39568 0.2564-0.70776 0.5963-1.0143 0.9418l0.8638 0.7914c0.050156-0.0725 0.10588-0.1393 0.15047-0.2006 0.92511-1.0979 2.0007-1.0645 3.1376-0.457-2.4577 1.187-2.8533 3.2657-2.7252 4.7648 0.11146 0.0167 1.2093 0 1.2093 0-0.10588-1.4601 0.93625-3.4162 3.0986-4.0069l0.32322-0.6632-0.01671-0.4737z" fill="#8000DB" />
    <path d="m22.225 10.765c3.6447-5.0547 5.4392-7.5625 4.0013-8.7774-0.9529-0.79692-2.2403-0.23406-4.319 1.3208-0.0724 1.6607-0.4737 4.0236-1.0087 7.1612l1.3264 0.2954z" fill="#008298" />
    <path d="m24.532 41.076h-1.3375c-0.0335 1.9116 0.0167 3.8788-2.023 4.5085 0.0669 0.0056 0.1393 0.0168 0.2174 0.0223 0.2173 0.0223 0.4291 0.0056 0.6353-0.039 2.5356-0.6464 2.4688-2.597 2.5078-4.4918z" fill="#580098" />
    <path d="m25.975 41.076-1.4099-3.3382h1.3152l-1.1034-3.1542h-1.828l0.8527 3.1542h-1.0143l1.0867 3.3382h2.101z" fill="#98005E" />
    <path d="m21.172 45.585c2.0397-0.6297 1.9896-2.5858 2.023-4.5085h-4.8429c-0.0278 2.8478 0.9976 4.2355 2.8199 4.5085z" fill="#8000DB" />
    <path d="m22.782 37.738h1.0086l-0.847-3.1431-4.9265-0.0223-1.1424 3.2657 1.2483 0.0948-1.2483 3.1431h7.0051l-1.0978-3.3382z" fill="#FF009E" />
    <path d="m12.567 37.86-1.304-3.3103-1.828-0.0056 0.90286 3.249h-1.031l1.1145 3.3717 2.3128 0.0222-1.6106-3.3381 1.4434 0.0111z" fill="#98005E" />
    <path d="m9.2956 37.782h1.031l-0.8972-3.249-4.9989-0.0223-1.2093 3.3716 1.2762 0.0947-1.2762 3.171 7.1835 0.0167-1.109-3.3827z" fill="#FF009E" />
    <path d="m20.704 0.32128c-1.9617-0.4737-3.1042 2.6583-5.9519 8.7773l6.1469 1.3654c0.5294-3.1376 0.9363-5.5005 1.0087-7.1612 0.078-1.7722-0.234-2.7363-1.2037-2.9815z" fill="#00BEDD" />
    <path d="m24.46 31.362 1.6218 0.1059-1.7276-3.4496h1.421l-1.2817-3.1376h-2.0509l1.1536 3.1376h-1.2817l1.5548 3.4496-1.4601-0.1059 1.5548 3.2323 2.2181 0.0056-1.7221-3.2379z" fill="#f90" />
    <path d="m26.081 21.649-1.1926-3.3381h-2.3072l0.9808 3.3381h-1.4211l1.2484 3.2435h2.4743l-1.5214-3.2435h1.7388z" fill="#008298" />
    <path d="m14.763 9.1043c-0.0111 0.01672-0.0111 0 0 0l-2.7307 5.4336 1.5103 0.0334-1.8112 3.7394h13.141l-1.6997-0.7189c-0.2564-0.1059-0.4124-0.3121-0.3455-0.4514 0.0055-0.0167 0.0167-0.0223 0.0223-0.0334 0.078-0.1115 0.312-0.1282 0.5461-0.0335l0.0724 0.0335 1.1927 0.5071 1.0309 0.4347v-6.5092l-10.928-2.4353z" fill="#FFE001" />
    <path d="m21.372 15.301c0.8248 0 1.4991-0.6688 1.4991-1.5103 0-0.8304-0.6688-1.5103-1.4991-1.5103-0.8248 0-1.4992 0.6688-1.4992 1.5103s0.6799 1.5103 1.4992 1.5103zm0-2.2571c0.4124 0 0.7523 0.34 0.7523 0.7524s-0.3399 0.7523-0.7523 0.7523-0.7524-0.3399-0.7524-0.7523c0.0056-0.4124 0.34-0.7524 0.7524-0.7524z" fill="#fff" />
    <path d="m21.422 14.543c0.4124-0.0223 0.7245-0.379 0.7022-0.797-0.0223-0.4124-0.379-0.7356-0.7969-0.7022-0.4124 0.0223-0.7245 0.379-0.7022 0.797 0.0223 0.4124 0.3845 0.73 0.7969 0.7022z" />
    <path d="m25.68 18.31v-0.2675l-2.2236-0.953-0.0724-0.0334c-0.2341-0.0947-0.457-0.078-0.5462 0.0334-0.0056 0.0056-0.0167 0.0223-0.0223 0.0335-0.0557 0.1393 0.0948 0.3455 0.3455 0.4514l1.6998 0.7189h0.0334l0.7858 0.0167z" />
    <path d="m22.152 21.649h1.4099l-0.9752-3.3381h-9.2678l-1.4044 3.3381h1.41l-1.332 3.2323h0.0168v0.0056h0.0947 11.285l-1.2372-3.2379z" fill="#00BEDD" />
    <path d="m11.987 24.881-5.9351-0.7969-1.8112 3.6948h1.2038c-0.11146 0.1505-0.23964 0.3232-0.35667 0.5016l1.6663 1.566 2.1623-2.0453 2.1066 2.0954 2.1623-2.0452 2.1623 2.0452 2.1066-2.0954 0.0668 0.0669 2.0899 1.9728 2.1623-2.0453 0.8248 0.8137-0.2564-0.5796h1.2818l-1.1536-3.1431h-10.466" fill="#FFE001" />
    <path d="m22.414 31.362 1.4601 0.0947-0.301-0.652-1.8223-1.8223-2.1511 2.1622-2.1623-2.1622-2.1512 2.1678-2.1121-2.1121-2.1623 2.0452-2.0899-2.0787-2.1511 2.1623-2.1512-2.1511c-0.13932 0.2341-0.98084 1.6997-1.2762 2.257l1.644 0.0948-1.4601 3.1431 20.464 0.0892-1.5771-3.2379z" fill="#FFE001" />
    <path d="m22.593 28.598-0.8248-0.8248-2.1623 2.0453-2.1623-2.0453-2.101 2.0955-2.1622-2.0453-2.1568 2.0453-2.1065-2.0955-2.1623 2.0453-1.6663-1.566c-0.15047 0.2341-0.32323 0.4737-0.4737 0.7412l2.1512 2.1512 2.1511-2.1623 2.0898 2.0787 2.1623-2.0453 2.1121 2.1121 2.1623-2.1623 2.1623 2.1623 2.1512-2.1623 1.8223 1.8224-0.9864-2.1902z" />
    <path d="m9.747 41.148c-0.03344 1.9282 0.02229 3.901-2.023 4.5363 0.1226 0.0168 0.25078 0.0335 0.37896 0.039 0.10588 0.0056 0.22849 0 0.3288-0.0223 0.09474-0.0222 0.19505-0.0501 0.28422-0.0724 0.12818-0.039 0.2675-0.078 0.37896-0.1226 0.07802-0.0334 0.15047-0.0669 0.23406-0.0947 0.05016-0.0223 0.09474-0.0502 0.13932-0.0725 0.04459-0.0223 0.08917-0.0501 0.12818-0.0724 0.06687-0.039 0.12818-0.0781 0.19505-0.1226 0.03901-0.0223 0.07245-0.0558 0.11146-0.0781 0.07802-0.0668 0.16159-0.1281 0.23409-0.2006 0.0724-0.0724 0.1449-0.1505 0.2173-0.234 0.0223-0.0335 0.0502-0.0558 0.0725-0.0892 0.0334-0.039 0.0557-0.078 0.078-0.1226 0.0501-0.078 0.0947-0.1672 0.1393-0.2508 0.0223-0.039 0.039-0.0892 0.0669-0.1282 0.0056-0.0223 0.0223-0.0501 0.0334-0.0724 0.0167-0.0335 0.0223-0.0725 0.039-0.1059 0.0056-0.0167 0.0168-0.0335 0.0168-0.0557 0.0222-0.0725 0.0501-0.1449 0.0668-0.2285 0-0.0167 0.0056-0.0335 0.0056-0.039 0.0167-0.0502 0.0223-0.0948 0.0334-0.1449 0-0.0056 0.0056-0.0223 0.0056-0.0335 0.0056-0.0557 0.0223-0.1114 0.0334-0.1783 0.0056-0.0334 0.0056-0.0669 0.0168-0.0947 0.0055-0.0335 0.0055-0.0725 0.0167-0.1059 0.0223-0.1672 0.039-0.3233 0.0501-0.5016 0.0168-0.2118 0.0223-0.4124 0.0223-0.6186 0.0056-0.2285 0.0056-0.4458 0.0168-0.6687l-1.3208-0.0446z" fill="#580098" />
    <path d="m4.8929 41.143c-0.00557 0.5573 0.02229 1.0589 0.09474 1.5103 0.02229 0.1783 0.05573 0.3399 0.09474 0.5015 0.02229 0.1059 0.05573 0.2118 0.07802 0.3065 0.41797 1.3375 1.2874 2.0397 2.5412 2.2348 2.0453-0.6353 1.9895-2.6137 2.023-4.5364h-4.8317v-0.0167z" fill="#8000DB" />
    <path d="m30.562 15.006c-0.4905 1.2427-2.1177 2.2514-4.9042 2.4966v0.8081c0.195-0.0056 0.3622-0.0223 0.5461-0.0334 0.2174-0.0167 0.418-0.039 0.6186-0.0725 0.1839-0.0223 0.3567-0.0557 0.5239-0.0891 0.7523-0.1505 1.3709-0.3846 1.8725-0.6799 0.1059-0.0669 0.2173-0.1282 0.3065-0.2007 0.0502-0.0334 0.0892-0.0668 0.1393-0.1058 0.1282-0.1059 0.2564-0.2285 0.3623-0.34 0.0724-0.0724 0.1281-0.1505 0.195-0.2396 0.1393-0.2118 0.2508-0.418 0.3121-0.6353 0.0836-0.2898 0.0947-0.5963 0.0279-0.9084z" fill="#98005E" />
    <path d="m26.276 11.685c-0.1951-0.0502-0.3846-0.1059-0.5963-0.1449v5.9742c2.7753-0.2508 4.4026-1.2651 4.9041-2.4967-0.2563-1.2762-1.6886-2.6026-4.3078-3.3326z" fill="#FF009E" />
    <path fill="#ffffff" d="m52.72 17.47c0.953 0.836 1.4379 1.9896 1.4379 3.4775 0 1.4824-0.4737 2.636-1.4379 3.4775-0.9529 0.836-2.2737 1.2595-3.9567 1.2595h-3.0874v5.1884h-3.0651v-14.651h6.1525c1.683 0 2.9982 0.418 3.9567 1.2483zm-1.6774 3.4775c0-1.5381-0.9195-2.3071-2.7474-2.3071h-2.6193v4.6199h2.6193c1.8279 0 2.7474-0.7746 2.7474-2.3128z" />
    <path fill="#ffffff" d="m55.612 16.556c0-1.0978 0.6297-1.644 1.8892-1.644s1.8892 0.5462 1.8892 1.644c0 1.0812-0.6297 1.6218-1.8892 1.6218s-1.8892-0.5462-1.8892-1.6218zm3.3939 14.317h-3.0373v-11.101h3.0373v11.101z" />
    <path fill="#ffffff" d="m71.077 20.59c0.7357 0.6911 1.0979 1.6942 1.0979 2.9983v7.2838h-3.0372v-6.42c0-1.6663-0.6688-2.5078-2.0007-2.5078-0.7078 0-1.3041 0.2507-1.8001 0.7412-0.4904 0.5015-0.7356 1.265-0.7356 2.296v5.8906h-3.0372v-11.101h2.7307l0.1115 2.062c0.3566-0.7579 0.8526-1.3208 1.5102-1.7109 0.6521-0.3845 1.4044-0.5796 2.2682-0.5796 1.187 0.0112 2.1567 0.3567 2.8923 1.0477z" />
    <path fill="#ffffff" d="m85.488 28.894-0.1783 1.8892c-0.3846 0.195-0.8639 0.2898-1.4434 0.2898-0.6521-0.0168-1.2094-0.1505-1.6775-0.418s-0.7802-0.652-0.9418-1.1536c-0.34 0.5016-0.8359 0.8972-1.4824 1.1759-0.652 0.2842-1.3319 0.418-2.0397 0.418-1.1536 0-2.0564-0.2564-2.7029-0.7747-0.6464-0.5183-0.9696-1.2595-0.9696-2.218 0-0.8136 0.2675-1.4824 0.7913-2.0063 0.5239-0.5238 1.2873-0.8972 2.296-1.0978l3.8231-0.7746v-0.418c0-0.6186-0.1784-1.1146-0.5406-1.4768-0.3622-0.3623-0.8359-0.5406-1.4378-0.5406-1.2149 0-2.0007 0.6019-2.3518 1.8223l-2.597-0.7969c0.2675-1.0087 0.8304-1.8001 1.6831-2.3796 0.8526-0.5796 1.9895-0.8638 3.3939-0.8638 1.4935 0 2.675 0.3566 3.5555 1.0588 0.8694 0.7022 1.3041 1.7165 1.3041 3.054v4.475c0 0.5629 0.2674 0.8471 0.7969 0.8471 0.2619 0.0056 0.5015-0.039 0.7189-0.1114zm-5.2218-0.4626c0.4681-0.3399 0.7021-0.8861 0.7021-1.644v-0.6855l-2.3294 0.4681c-0.5462 0.1059-0.9419 0.2397-1.1759 0.418-0.2341 0.1784-0.3567 0.4514-0.3567 0.8248 0 0.3567 0.1393 0.6297 0.4013 0.8304 0.2675 0.2006 0.5963 0.3009 0.9975 0.3009 0.7022 0 1.2929-0.1783 1.7611-0.5127z" />
    <path fill="#ffffff" d="m94.389 30.187c-0.3734 0.2842-0.8137 0.5015-1.3487 0.6687-0.5238 0.1616-1.0811 0.2397-1.6774 0.2397-2.5134 0-3.7729-1.1202-3.7729-3.3549v-5.7067h-2.0397v-2.2682h2.0397v-2.5579l3.0373-0.8471v3.3939h3.5555v2.2737h-3.5555v5.2219c0 1.0254 0.5071 1.5325 1.5325 1.5325 0.6688 0 1.2428-0.2118 1.7332-0.6186l0.496 2.023z" />
    <path fill="#ffffff" d="m107 28.894-0.178 1.8892c-0.385 0.195-0.864 0.2898-1.444 0.2898-0.652-0.0168-1.209-0.1505-1.677-0.418s-0.78-0.652-0.942-1.1536c-0.34 0.5016-0.836 0.8972-1.482 1.1759-0.652 0.2842-1.3324 0.418-2.0401 0.418-1.1536 0-2.0564-0.2564-2.7029-0.7747-0.6464-0.5183-0.9697-1.2595-0.9697-2.218 0-0.8136 0.2675-1.4824 0.7914-2.0063 0.5238-0.5238 1.2873-0.8972 2.296-1.0978l3.8233-0.7746v-0.418c0-0.6186-0.179-1.1146-0.541-1.4768-0.362-0.3623-0.836-0.5406-1.438-0.5406-1.2145 0-2.0003 0.6019-2.3514 1.8223l-2.597-0.7969c0.2675-1.0087 0.8304-1.8001 1.683-2.3796 0.8527-0.5796 1.9896-0.8638 3.3944-0.8638 1.493 0 2.675 0.3566 3.555 1.0588 0.869 0.7022 1.304 1.7165 1.304 3.054v4.475c0 0.5629 0.268 0.8471 0.797 0.8471 0.262 0.0056 0.502-0.039 0.719-0.1114zm-5.222-0.4626c0.468-0.3399 0.702-0.8861 0.702-1.644v-0.6855l-2.329 0.4681c-0.5463 0.1059-0.942 0.2397-1.176 0.418-0.2341 0.1784-0.3567 0.4514-0.3567 0.8248 0 0.3567 0.1393 0.6297 0.4012 0.8304 0.2675 0.2006 0.5963 0.3009 0.9975 0.3009 0.702 0 1.293-0.1783 1.761-0.5127z" />
</svg>
