<svg width="189" height="71" viewBox="0 0 189 71" fill="none" xmlns="http://www.w3.org/2000/svg">
<path d="M58.4 11.4H35.3V71H23.3V11.4H0.3V0.0999949H58.4V11.4ZM68.2422 0.0999949H92.6422C99.3089 0.0999949 104.576 1.86666 108.442 5.4C112.309 8.93333 114.242 13.5333 114.242 19.2C114.242 22.8667 113.276 26.0667 111.342 28.8C109.409 31.4667 106.876 33.3667 103.742 34.5C107.542 35.5 110.609 37.5333 112.942 40.6C115.276 43.6667 116.442 47.2667 116.442 51.4C116.442 57.1333 114.409 61.8333 110.342 65.5C106.276 69.1667 100.976 71 94.4422 71H68.2422V0.0999949ZM80.1422 30.1H91.0422C94.5089 30.1 97.2422 29.2 99.2422 27.4C101.242 25.6 102.242 23.2 102.242 20.2C102.242 17.1333 101.209 14.7333 99.1422 13C97.1422 11.2 94.3422 10.3 90.7422 10.3H80.1422V30.1ZM80.1422 60.8H92.3422C95.9422 60.8 98.8089 59.9 100.942 58.1C103.142 56.2333 104.242 53.7333 104.242 50.6C104.242 47.4667 103.209 44.9667 101.142 43.1C99.1422 41.1667 96.3422 40.2 92.7422 40.2H80.1422V60.8ZM175.727 71L169.027 53.2H139.027L132.427 71H119.727L147.327 0.0999949H161.227L188.827 71H175.727ZM154.027 13.1L143.227 42.1H164.827L154.027 13.1Z" fill="white"/>
</svg>
