<svg width="420" height="293" viewBox="0 0 420 293" fill="none" xmlns="http://www.w3.org/2000/svg">
<path d="M21.5 175.3C23.5 173.9 25 171.7 27.6 171.2C36.8 168.8 46.1 167.6 55.5 170C61.3 174.5 59.3 180.3 58.2 186C56.6 188.6 54.2 190.5 52.4 192.9C50.8 193.9 49.9001 195.6 48.3001 196.6C43.9001 198.9 38.8 199.9 35.6 204.2C35.2 206.1 35.3001 208 35.3001 209.9C35.4001 213.5 34.4 217.3 36 220.5C38 224.4 42.5 222.2 45.7 223.1C47.3 223.6 49 223.9 49.7 225.7C42.1 230.3 43.6 237.2 45.1 244C47.3 254.1 50.7 263.6 57.6 271.6C67 282.4 78.8 283.3 89.4 273.9C97.8 266.5 101.2 256.5 103.7 246C104.4 242.8 102.8 241.7 100 241.6C96.8 241.5 93.6 241.3 90.4 241.6C83.5 243 76.3 241.4 69.5 243.2C59.2 245.8 55.8 243.4 52.9 231.2C52.9 228.6 52.5 225.9 55.6 224.6C72.8 224.3 90.1 225.1 107.3 224.1C107.6 224 107.8 223.8 108.1 223.7C108.3 223.5 108.5 223.3 108.7 223.1C110 221.6 110.3 219.9 109.8 218C109.8 217.5 109.9 216.9 110 216.4C110.8 215.7 110.7 214.9 110.2 214.1C110.3 213.5 110.5 213.1 110.9 212.7C114.1 210.9 114.5 214.2 116 215.5C118 217.3 119.7 217 121.1 214.9C123.1 210.7 123.5 206 124.9 201.7C126.1 197.9 124.3 196.8 120.9 196.8C118 196.8 115 197.1 112.2 196C111.2 195.5 110.4 194.8 110 193.8C109.4 189.4 112.5 189 115.5 188.9C120.7 188.7 126 188.8 131.2 188.9C141.4 190.4 151.8 188.6 159.8 189.7C152.6 188.2 142.9 191 133.6 188.6C131.6 182.7 135.5 180.1 139.8 177.8C149.8 178.4 159.9 177.4 170 178.3C162.8 177.8 155.5 178.1 148.3 178C146.1 177.9 143.5 178.9 142.3 175.9C143 172.1 145.8 170.9 149 170C158.6 171.9 168.4 170.5 176.4 171C171.5 170.9 164.7 171.1 158 170.9C156.2 170.8 153.5 172.4 152.8 169.1C153.1 168 153.7 167.2 154.7 166.6C164.7 163 175.1 165.3 185.3 164.7C186.7 164.7 188.1 164.6 189.3 165.3C191.2 166.2 192.3 170.2 195.4 166.9C202.7 168 209.5 168.2 215.4 175C220.1 180.5 224.8 188.5 234.4 187.7C235.1 187.6 235.7 187.6 236.4 187.5C237.4 187.5 238.4 187.7 239.4 187.7C242.8 187.2 246.3 187.1 249.7 187.6C251.4 187.6 253.2 187.3 254.9 187.6C255.6 187.6 256.3 187.5 257 187.4C258.8 187.3 260.6 187.6 262.2 188.5C264.2 189.9 264.6 191.9 263.8 194.1C263.2 195.3 262.1 196.3 260.9 196.2C257 195.9 255.4 198.4 254 201.2C252.1 202.9 250 204.5 250.1 207.4C250.6 216.4 248 225.4 249.5 234.5C250.4 239.6 250.7 245 248.7 250.1C247 252.8 244.1 252.7 241.4 253C234.3 253.8 231.7 256.4 230.9 263.2C230.7 264.5 231 266.1 230.1 266.9C224.6 271.6 221.2 277.8 217.3 283.7C217.1 284 216.6 284.4 216.3 284.4C209.6 284.6 204.9 289.4 199.3 292.1C198 292.3 196.8 292.2 195.6 291.8C192.6 288.9 189.8 289.3 187 292.1C179.5 293.6 172 292.7 164.5 292.8C141 290.2 131.2 273.3 124.3 253.6C123.3 250.8 123 247.8 122.1 245C121.1 242 118.8 241.4 116 241.7C112.9 242.1 113 244.4 113.4 246.5C114 250.6 111.1 253.8 110.7 257.1C109.5 265.9 102.9 271.2 99.2 278.2C97 282.2 94.7 285.2 89.7 285.4C86.9 285.5 84.4 286.9 82.5 289C80.7 290.9 78.5 292.1 75.9 292.5C66 293 56.1 292.7 46.1 292.7C43.6 292.7 41 292.5 39.1 290.3C26.8 288.4 18.1001 281.1 12.3001 270.8C-2.49995 244.6 -2.89997 217.7 9.90003 190.5C14.9 187.9 20.3 189.6 25.5 189.3C29.5 189 33.5 189.2 37.5 189.3C30.7 189.3 24 189.4 17.2 189.2C15.2 189.2 12.3 190.2 12.2 186.5C13.8 183.9 15.3 181.2 17.6 179.1C20.6 176.6 24.2 177.9 27.4 177.8C34 177.7 40.5 177.4 43.9 177.7C40.4 177.6 33.6001 177.9 26.8001 177.6C25.0001 177.7 22 179 21.5 175.3Z" fill="#221E20"/>
<path d="M262.9 194.1C262.9 192.3 264.2 190.3 261.9 189C261.1 180.5 264.1 172.7 266.2 164.8C267.5 159.9 269.3 155.1 270.7 150.2C275.3 145 279.2 139.1 283.1 133.4C285.1 130.5 287.4 128.2 290.5 126.7C291.6 125.7 292.2 124.3 293.4 123.4C295.9 121.7 298.3 119.9 301.3 119.1C303.1 118.5 304.9 118.6 306.7 119.1C321.6 119.1 336.5 119.2 351.4 119.1C358.5 119.1 364.1 122.4 369.2 126.8C369.6 127.5 369.4 128.1 368.8 128.5C365.8 128.6 362.8 127.7 360.3 126.4C349.6 120.7 339.9 124.4 330.8 129.9C315.3 139.1 308.4 154.3 304.6 171.1C302.5 180.4 300.2 189.7 300.6 199.3C300.6 199.7 300.5 200.1 300.5 200.6C300.3 203.2 297.3 204.7 297.6 207.5C290 209.8 282.2 208.8 274.5 208.3C272.2 208.1 269.9 208.2 267.6 208.2C263.6 208.2 261.3 206.4 261.1 202.2C261 200.6 260.9 199.1 261.3 197.5C261.6 196 262.2 195 262.9 194.1Z" fill="#B2D465"/>
<path d="M65 108.9C70.5 102.7 77.7 103.6 84.9 103.6C107.4 103.7 130 103.6 152.5 103.6C155 103.6 157.6 104.4 159.8 102.4C160.1 102.3 160.4 102.2 160.8 102.1C161.1 102.1 161.5 102 161.8 102C165.3 101.8 168.7 101.2 172.2 101.7C181.2 100 190.3 102.7 199.3 101.6C207.2 100.8 214.7 101.3 221 107C223.8 109.2 227.6 110.6 227.3 115.2C226.6 116.3 225.6 116.9 224.5 117.3C223.5 117.6 222.4 117.9 221.4 117.9C185 117.9 148.6 118.3 112.2 117.7C96.3 116.9 80.3 117.4 64.4 117.3C61.9 117.3 59.2 117.7 57.3 115.4C57.3 115 57.3 114.6 57.3 114.2C59.8 112.1 63.9 112.8 65 108.9Z" fill="#B1D667"/>
<path d="M374.2 290.3C371.6 289.9 369 291 366.5 290C365 288 366.5 286.8 368 286.2C371.7 284.8 373.6 281.6 375.9 278.8C405.7 261.3 409.8 232.6 408.3 202C407.9 192.2 404.8 182.8 401 173.8C395.8 161.4 387.7 151.7 374.9 146.6C372.9 145.5 370.7 145.1 368.5 145C367.5 144.8 366.6 144.3 365.8 143.6C364.9 142.5 364.6 141.2 364.5 139.8C364.1 137.8 364.2 135.8 364.8 133.8C365.2 132.5 366 131.5 367.3 131C367.9 130.8 368.6 130.8 369.2 130.9C370.1 131.1 371 131.5 371.7 132.1C374.3 133.8 374.7 138.7 379.3 137.6C383.6 136.6 386.1 138.7 387 142.7C388.2 148.4 391.6 151.5 397.3 151.8C401.1 152 401.8 154.6 402 157.3C402.3 163.8 403.3 169.4 410.9 171.7C413.1 172.4 413.8 175.4 412.8 178.2C410.7 183.8 410 189 416.7 192.6C418.9 193.8 418.5 197.2 417.1 199.6C413.9 205.1 413.2 210.3 418 215.5C420.1 217.8 419.4 220.4 417.2 222.8C412.9 227.4 412.6 232.5 415.6 237.7C417.5 241 415.8 243.4 413 245.1C408.4 247.8 406.3 250.8 409.2 256.4C410.7 259.4 408.7 262.4 405.1 263.5C399.8 265.1 396.5 267.9 397.1 274.1C397.4 276.7 394.5 278.3 393.3 280.5C391.3 284 389.5 281 387.6 280.4C384.2 279.4 377.2 284.3 375.2 289C375.1 289.5 374.7 289.8 374.3 289.9L374.2 290.3Z" fill="#191C1E"/>
<path d="M162.2 16.3C158.3 17.3 156.6 15.7 156.9 11.7C157 9.99995 157.1 8.29998 156.9 6.59998C156.4 2.39998 158.3 1.19995 162.4 1.19995C188.3 1.39995 214.2 1.30005 240.1 1.30005C243.7 6.20005 243.2 11.3 241 16.5C239.9 17.9 238.5 18.4 236.8 18.5C234.6 18.8 232.4 18.9 230.4 17.6C227 11.5 224.3 10.3 218.6 11.4C214.6 12.1 215.4 16.8 212.3 18C206.4 20.1 200.4 19.2 194.4 18.7C190.6 19.3 186.8 19.4 183.1 18.4C181.8 17.9 180.6 17.2 179.5 16.3C174.6 9.20005 167.9 9.20005 162.2 16.3Z" fill="#AED567"/>
<path d="M239.9 16.3C239.9 11.3 240 6.30002 240 1.40002C258 1.20002 276 0.899951 294 0.699951C297.8 0.699951 300.1 1.89998 300.1 6.59998C300 16.3 300.3 16.3 291.1 16.9C289.7 18.3 288 18.8 286 18.7C283.1 19.3 280.2 19.2 277.2 18.7C276.1 18.7 275 18.7 273.9 18.8C269.7 19.6 265.6 19.3 261.4 18.9C254.7 19.3 248 20.3 241.4 18.1C240.7 17.7 240.2 17.1 239.9 16.3Z" fill="#4EB44D"/>
<path d="M160.7 101C161.6 93 162.4 85 163.4 77C163.9 73.3 163.2 71.2001 158.9 71.8001C157.2 72.0001 155.5 71.8001 153.8 71.8001C147.1 71.8001 147.1 71.8001 147.2 78.8001C147.2 79.8001 147.2 81 145.8 80.7C144.5 80.5 144.9 79.2001 144.6 78.3001C144.5 77.0001 144.6 75.7 144.4 74.5C143.8 70.4 145.5 68.5 149.7 69.2C150.5 69.3 151.4 69.2 152.2 69.2C164.7 69.1 164.7 69.1001 165.7 56.9001C166.1 52.7001 166.3 48.4 167.1 44.2C167.9 40 166.1 38.9001 162.3 39.3001C161 39.4001 159.8 39.3001 158.5 39.3001C151.1 39.3001 150.9 39.3 150.7 46.5C150.6 49.8 149.2 50.2001 146.4 50.3001C137.9 50.6001 137.9 50.7 137.9 42.4C137.9 40.3 137.9 38.1 137.9 36C137.9 28.5 141.9 25.7 148.8 28.1C149.7 28.4 150.5 28.7 150.4 29.7C149.7 35.4 153.8 34.4 157 34.4C168.5 34.5 168.5 34.5 169.5 23.1C169.6 22.3 169.7 21.4 169.8 20.6C170.3 17.4 170.7 14 175.3 16.9C177.1 19.3001 177.1 22.1001 176.7 24.8001C173.7 45.5001 172.5 66.4 169 87C168.6 88.6 168.1 90.2 167.9 91.9C167.9 92.8 167.5 93.8 167.4 94.7C166.9 96.7 165.4 98.3 165.1 100.4C164.7 103.4 162.8 103.3 160.5 102.4C160.2 102.1 160.1 101.7 160.2 101.4C160.5 101.1 160.6 101 160.7 101Z" fill="#2C403F"/>
<path d="M57.3 115.2C75.6 115.2 93.9 115.3 112.2 115.3C113.3 117 113.5 118.9 113.5 120.8C113.5 141 113.6 161.2 113.5 181.4C113.5 183.1 113.3 184.8 112.7 186.4C111.4 189.5 108.9 190.1 105.9 189.6C103.8 189.3 101.7 187.8 102.8 185.8C105.3 181 101.8 177.3 101.3 173.1C101.1 172.5 101 171.8 101 171.2C101.1 167.9 104.3 165.5 103.9 162C103.9 152.1 103.9 142.2 103.9 132.4C103.9 129.6 103.9 126.9 102.5 124.5C102 123.7 101.3 122.9 100.5 122.4C98.2 121 95.7 120.8 93.1 120.9C83.1 121.4 73.1 119.8 63.2 121.9C62.2 122.2 61.2 122.5 60.2 122.6C59.1 122.6 58.2 122.3 57.4 121.6C57.3 119.4 57.3 117.3 57.3 115.2Z" fill="#7BC46A"/>
<path d="M105.8 163.7C105.9 167 103.4 168.9 101.9 171.4C98 172.7 94 171.6 90.1 172.1C89.2 172.4 88.5 172.9 88.2 173.9C89.5 177.3 86.7 181.4 90.2 184.4C92.1 184.4 94 184.5 95.9 184.4C98.1 184.2 99.4 183.2 99.5 180.8C99.6 178.4 98.9 176.9 96.2 176.3C93.7 175.7 89.9 177.2 89.1 172.9C93.4 171.5 97.7 171.8 102 172.7C103 172.8 104.9 172.9 104.8 173.5C103.5 178.1 108.5 182.9 103.8 187C106.3 188.7 108.7 187.9 110.9 188.1C111.4 188.9 111.2 189.6 110.4 190.1C102.5 193.3 94.4 192.4 86.4 190.8C82.1 187.8 83.3001 183.3 83.3001 179.2C83.2001 170.7 83.3 170.7 75.2 169.2C74.2 169 73.1 169 72 169C73.7 169.2 75.6 169.1 75.4 171.7C74.4 173 73 173.2 71.5 173.4C62.6 174.4 61.6 175.9 64.2 185C64.8 186.2 65.4 187.3 65.5 188.6C65.4 189.3 65.1 189.9 64.6 190.3C62.3 191.6 59.9 191.5 57.6 190.4C56.4 189.5 55.6 188.5 56.2 186.8C57.5 181.7 57.6 176.6 56 171.5C55 169.5 55.8 168 57.1 166.6C57.2 151.6 57.3 136.6 57.4 121.7C58.2 121.7 58.9 121.8 59.7 121.8C62.7 124 62.4 127.4 62.4 130.5C62.5 139 62.6 147.5 62.4 156C62.3 161 64.3 162.7 69.2 162.7C78.7 162.7 88.3001 162.2 97.8001 163C99.5001 163.3 101.2 163.9 102.9 163.5C103.4 163.4 103.9 163.3 104.5 163.2C105 163.1 105.4 163.3 105.8 163.7Z" fill="#88BB7B"/>
<path d="M286.1 16.9C287.8 16.9 289.4 16.9 291.1 16.9C296.3 50.9 301.5 84.9 306.7 118.9C305.3 120.7 303.4 120.7 301.5 120.3C298.4 118 298.4 114.4 297.9 111.1C293.8 83.6 289.6 56.1 285.4 28.6C284.7 24.7 283.1 20.6 286.1 16.9Z" fill="#2E3D3C"/>
<path d="M175.1 16.8001C171.9 16.0001 171.2 18.6 170.1 20.5C170.3 13.7 165 17.4001 162.2 16.3001C162.3 13.0001 160.5 8.99998 166.7 9.09998C182.1 9.39998 179.4 8.40001 179.9 15.5C179.1 18.9 177.2 18.1001 175.1 16.8001Z" fill="#576053"/>
<path d="M57 166.5C57.3 168.3 56.7 169.9 55.9 171.4C46.5 171.3 37.1 171.3 27.6 171.2C36.6 164.6 46.9 166.6 57 166.5Z" fill="#1E2B2C"/>
<path d="M21.5 175.3C27.8 178 34.4 175.9 40.8 176.5C42.9 176.7 45 176.5 47.2 176.6C50.4 176.8 51.3 179.2 52 181.7C52.4 183 51.7 184.3 50.3 184.7C48.9 185.1 48.5 183.8 48.3 182.8C47.4 178.9 44.4 179 41.3 179C33.5 179.1 25.6 179 17.8 179.1C18.4 177.3 19.9 176.2 21.5 175.3Z" fill="#515153"/>
<path d="M151.8 89.7C151.8 92.2 152.1 94.7 150.6 97C149 99.4 146.5 98.7 144.3 98.4C142 98 142.3 96.2 142.6 94.5C142.9 92.8 142.2 91.2 141.6 89.7C145.1 87 148.4 87.1 151.8 89.7Z" fill="#DCE5E3"/>
<path d="M379.4 137.5C378.7 139.2 378.3 141.2 375.8 141C373.5 140.8 373.6 138.9 373.1 137.4C372.5 135.7 372.5 133.6 370.4 132.9C370 132.6 369.5 132.2 369.1 131.9L369 131.8C368.7 131.4 368.5 131 368.4 130.6C368.3 130.1 368.3 129.7 368.4 129.2C368.5 128.7 368.8 128.4 369.2 128C369.2 127.5 369.3 127 369.3 126.5C373.5 129.4 377.4 132.6 379.4 137.5Z" fill="#BED68F"/>
<path d="M144.6 78.4C145.3 79.5 145.9 81.4 147.3 78.8C147.6 79.4 147.8 80 148.1 80.6C151.8 81.5 151.7 84.5 151 87.1C150.2 90.3 146.9 89.3 145.2 88.8C139.4 87.2 142.9 83.6 143.9 80.6C144.1 79.9 144.4 79.1 144.6 78.4Z" fill="#BF6A41"/>
<path d="M143.9 80.6C144.3 83.2 141.1 86.4 145.1 88.2C146.7 88.9 149.1 89.1 150.1 87.1C151.5 84.5 149.9 82.4 148 80.6C154.8 81.3 150.8 86.5 151.7 89.6C148.3 89.6 145 89.5 141.6 89.5C142.5 86.6 139.6 82.7 143.9 80.6Z" fill="#C39B88"/>
<path d="M65 108.9C65.6 115.3 60.9 113.7 57.4 114C58.6 110.3 62.5 110.7 65 108.9Z" fill="#AAD299"/>
<path d="M160.7 101C160.7 101.5 160.7 102 160.7 102.5C160.4 102.5 160.1 102.5 159.8 102.4C160.1 101.9 160.4 101.4 160.7 101Z" fill="#5B685F"/>
<path d="M374.1 290C374.4 289.7 374.7 289.4 375 289.1C375 289.6 374.7 290 374.1 290Z" fill="#221E20"/>
<path d="M111.1 188.8C111 188.5 110.9 188.2 110.8 188C110.8 166.4 110.8 144.9 110.9 123.3C110.9 120.6 110.5 117.8 112.2 115.3C150.1 115.3 188 115.4 225.9 115.4C230.9 114.4 232.7 117.1 233.4 121.5C235.8 135.9 237.9 150.2 238.8 164.8C239.1 169.6 241.9 174.1 240.8 179.1C240.6 179.9 240.4 180.7 240.1 181.5C236.7 185.3 235.3 181.5 234.2 179.5C231.3 174 227.8 169 223.5 164.6C212.4 153.1 197.6 152.7 185.7 163.6C184.9 164.3 183.9 164.7 182.9 164.9C176.6 166.3 170.3 165.3 163.9 165.6C160.6 165.7 157.1 165.5 154.3 167.8C153.9 168.2 153.4 168.6 153 169.1C152.8 169.2 152.5 169.2 152.3 169.3C151.6 169.5 150.9 169.8 150.3 170.3C149.9 170.6 149.5 170.9 149.1 171.2C147.1 172.6 145.1 174.1 143.1 175.5C142.1 176.5 142.3 178.6 140.3 178.8C137.2 181.3 135.1 184.4 133.5 188C132.6 189.3 131.2 189.8 129.7 189.9C123.6 189.3 117.2 191.3 111.1 188.8Z" fill="#4EB548"/>
<path d="M230 225.3C229.9 246.5 226.2 262.7 213.2 275.6C204 284.7 191.4 284.7 181.7 276.2C171.2 267.1 166.8 254.9 165 242C162.9 227.2 163.9 212.3 170 198.3C173 191.4 177.2 185.3 183.1 180.5C194.8 171 211.7 175.6 220.2 190.6C227 202.4 230.5 215.2 230 225.3Z" fill="#595A5C"/>
<path d="M90.3 239.4C94.3 239.3 98.4 239.2 102.4 239.2C106 239.2 107.7 241.1 106.7 244.5C103.9 254 101.5 263.6 94.9 271.7C83.1 286.3 65.8999 286.3 54.6999 271.3C46.2999 260.2 42.6 247.7 41.9 234C41.5 226.4 41.8 226.4 49.5 226.4C50.6 226.2 51.6999 226.4 52.5999 227.1C53.2999 227.7 53.6 228.5 53.8 229.3C53.8 229.9 53.7 230.4 53.4 230.9C51.5 234.5 53.3 238 54 241.5C55.8 248.5 58.9 254.6 65.4 258.4C72.3 263.3 79.9 258.3 84.8 250.9C87.2 247.3 88.6 243.3 90.3 239.4Z" fill="#414142"/>
<path d="M239.9 16.3C240.4 16.5 240.9 16.7 241.5 16.8C244.2 19.3 244.3 22.8 244.8 26.1C245.2 28.7 243.7 32.8 248 33.2C252.3 33.6 257.3 35.5 260.7 30.6C261.6 29.3 262.5 28.3 264 27.8C268 26.8 271.9 26.5 275.3 29.4C277.7 35.9 276.8 42.8 276.4 49.4C276.1 54.8 271.1 55.1 266.6 54.8C265.5 54.4 264.4 54.2 263.4 53.6C260 51.4 262.6 46.2 258.8 44.2C257.6 43.7 256.3 43.7 255 43.6C246.9 43.4 246.4 44.3 247 52.2C248.3 72 251 91.7 251.4 111.6C251.5 115.4 252.3 119.1 252.8 122.9C254.4 141.4 255.8 159.9 257.5 178.4C257.8 181.3 258.2 184.3 257.1 187.2C256.7 187.9 256.3 188.5 255.7 189.1C253.9 189.1 252.1 189.2 250.2 189.2C246.2 184.9 247.7 179.4 247.3 174.6C245.8 156.2 243.5 137.9 242.6 119.5C241.9 111.5 241.5 103.5 240.9 95.6C240 90.9 240.6 86 239.5 81.3C238.9 78.7 239 75.7 235.1 75.6C231.6 75.5 231.1 77.9 230.5 80.4C230.2 81.6 229.7 82.8 228.6 83.6C227 83.9 225.9 83.1 225 81.9C222.8 71.7 223.9 69.6 233.7 68.2C237.7 67.6 237.8 65.3 237.7 62.4C237.3 53 236.2 43.7 235.7 34.4C235.4 28.6 233 22.7 236.6 17.1C237.6 16.7 238.8 16.5 239.9 16.3Z" fill="#2E3C38"/>
<path d="M255.8 188.4C254 166.5 252.2 144.6 250.5 122.8C250.6 122.4 250.8 122 250.9 121.6C251.9 118.3 248.7 114.1 252.6 111.7C256.6 109.3 261.2 110.3 265.6 110.9C267.3 111.2 268.9 111.6 270.1 113C273.1 121 272.4 129.5 273.2 137.8C273.6 141.9 274.8 146.2 272.2 150.1C272.6 158.6 267.1 165.5 266.1 173.8C265.7 177.5 264 181.1 264.2 184.9C264.3 186.8 263.3 188 261.9 189C260 189 258.2 188.9 256.3 188.9C256.1 188.7 255.9 188.5 255.8 188.4Z" fill="#D6EAD0"/>
<path d="M53.3001 229.9C53.3001 229.6 53.3001 229.4 53.4001 229.1C53.1001 228.6 52.6001 228.2 52.4001 227.6C51.4001 227.3 50.2 227.4 49.5 226.4C46.2 223.7 42.2 225.1 38.6 225.1C33.9 225.2 32.4 223.2 33 219C33.9 213.4 32.2 207.6 34.2 202.1C49 198.1 64.1 201.9 79 200.9C84.6 200.5 90.5001 199.6 95.9001 202.6C100.9 209.2 99.8001 216.3 97.9001 223.6C97.2001 224.7 96.1001 225.2 94.9001 225.6C81.9001 225.6 69 226 56 225.4C54 227.1 55.1001 229.3 54.8001 231.3C53.5001 231.7 52.9001 231.4 53.3001 229.9Z" fill="#7EC26C"/>
<path d="M244.8 118.9C246.7 140.7 248.5 162.4 250.3 184.2C250.4 185.9 250.2 187.6 250.1 189.2C246.3 189.1 242.6 189 238.8 188.9C237.3 187 236.7 185 238.7 183C238.2 171.1 236.6 159.4 234 147.8C233.7 146.4 233.5 144.8 233.8 143.4C235.2 135 230.7 127.4 231.1 119.1C231.3 115.6 227.5 116.9 226 115.3C226.5 114.8 227 114.3 227.5 113.8C234.6 111 242.1 113.2 244.8 118.9Z" fill="#76B591"/>
<path d="M95.6 203.4C82.1 203.4 68.6 203.3 55.1 203.4C48.5 203.4 41.8 200.8 35.2 203.7C35.1 203.7 34.6 202.8 34.3 202.3C38.6 199.4 42.5 195.5 48.3 195.8C55.7 192.7 63.8 192.3 71.3 192.5C83.6 193 95.9 192.7 108.2 193.7C108.9 194 109.7 194.3 110.3 194.7C111 195 111.7 195.4 112.4 195.8C113.7 199.1 113.2 202.1 110.5 204.5C105.4 206.4 100.4 207 95.6 203.4Z" fill="#B4D46F"/>
<path d="M282.1 259.3C277.2 259.4 272.4 259.2 267.5 259.6C262.9 259.9 260 258.9 260.2 253.6C260.2 252.6 259.5 251.6 259.1 250.7C255 243.9 255.9 236 254.5 228.7C253.4 222.7 253.1 216.6 252 210.5C251.3 206.6 251.7 202.9 253.7 199.5C252.9 196.1 252.9 193.5 257.7 194.2C259.4 194.4 261.1 194.2 262.8 194.1C262.8 195.1 262.7 196.2 262.7 197.2C260.9 198.4 260.4 200.1 261 202.2C260.6 206.5 262.3 208.3 266.8 208C269.6 207.8 272.7 207.2 275.1 209.7C275.8 210.9 275.9 212.1 275.4 213.4C273.5 216.1 270.6 215.7 267.9 215.9C265.2 216.1 263.3 216.9 263.8 220.1C264.2 222.9 263.6 226.3 268.1 226.6C271 226.8 274.2 225.8 276.4 228.6C276.8 229.5 276.9 230.4 276.6 231.3C275 233.7 272.3 233.6 269.9 234C264.1 234.9 264 235.2 267.2 241C269.3 243.7 275.3 240.7 275.2 246.5C274 248.6 271.9 248.7 269.8 248.7C268.2 248.7 266.9 249 266.7 250.8C266.7 251.7 267.1 252.4 267.5 253.1C270.3 256.2 274.1 254.6 277.5 255.2C279.7 255.6 283.4 254.7 282.1 259.3Z" fill="#5EA95A"/>
<path d="M238.7 183.1C238.3 185.1 239.9 187 238.8 189C237.8 188.9 236.9 188.9 235.9 188.8C235.2 188.7 234.6 188.5 234 188.2C231.6 187 230.5 184.6 229.2 182.5C221.8 171 211.7 164.6 197.6 164.6C193.4 164.6 188.6 166.1 184.9 162.6C190 155 201.6 151.5 211.5 154.5C221.7 157.6 228 165.2 233.4 173.8C235.4 176.7 236.2 180.4 238.7 183.1Z" fill="#B0D76C"/>
<path d="M253.8 199.5C254.8 212.6 256.6 225.6 258.6 238.6C259.2 242.6 259 246.7 259.1 250.7C255.2 250.6 251.4 250.5 247.5 250.4C247.3 236.5 246.8 222.5 247.2 208.6C247.4 203.4 248.4 200.2 253.8 199.5Z" fill="#575959"/>
<path d="M185 162.5C189 162.6 193 162.9 197 162.6C214.2 161.4 225.2 170.3 233.2 184.3C233.9 185.6 234.7 186.8 235.4 188.1C235.4 188.4 235.4 188.6 235.4 188.9C232.6 189 229.9 189.2 227.1 189.2C226.1 189.2 224.3 188.7 224.3 188.3C223.7 179.7 211.7 180.5 210.9 172.1C210.8 171.5 209.5 170.3 209.2 170.5C203.8 173 200.2 167.4 195.4 167.5C193.5 168.1 191.7 167.8 190.3 166.3C189 166.2 187.6 166.1 186.3 166.1C185.9 165.8 185.5 165.6 185 165.4C184.6 165.2 184.2 164.8 184 164.4C184 164.2 183.9 163.9 183.9 163.7C184.2 163.3 184.6 162.9 185 162.5Z" fill="#1B5D20"/>
<path d="M109.6 195.4C89.2 195.5 68.8 195.5 48.3 195.6C48.4 193.8 49.2 192.5 50.9 191.8C52.3 193 53.3 191.8 54.4 191.3C55.4 191 56.3 190.6 56.7 189.6C56.9 189.4 57 189.2 57.2 189.1C59.8 189 62.4 188.9 64.9 188.9C71.7 187.3 78.5 185.3 85.2 189C93.8 189 102.4 189 111 189C117.7 189.1 124.5 189.2 131.2 189.3C132.5 188.9 132.8 189.5 132.7 190.7C126.8 190.7 121 190.8 115.1 190.8C112.4 190.8 110.6 191.5 110.8 194.6L110.6 195.2C110.3 195.1 109.9 195.3 109.6 195.4Z" fill="#22271A"/>
<path d="M244.1 211.1C245.9 216.6 245 221.9 243.9 227.4C243.1 231.5 240.5 231.6 237.3 231.6C233.5 231.5 233.6 228.9 233.6 226.3C233.6 225.9 233.6 225.4 233.6 225C234.2 219.2 236.4 213.3 231.3 208.1C230.4 207.2 230.8 204.7 231.1 203.1C231.9 199.8 231.5 197.2 227.3 195.8C231.4 193.9 235.2 194.7 238.8 194.7C242.8 202.1 242.6 210.3 243.1 217.6C243.7 215.9 242.2 213.3 244.1 211.1Z" fill="#1E5A22"/>
<path d="M110.9 203.2C111.2 200.7 111.6 198.3 111.9 195.8C112.2 194.9 113 194.8 113.7 194.4C117.5 194.4 121.3 194.5 125.2 194.5C128.4 194.5 129.4 196 128.3 199C126.2 205 124.8 211.2 123.6 217.5C120.4 218.5 117.1 218.2 113.8 217.7C112.9 216.4 115.4 213.1 111.4 213.7C107.5 210.4 108.2 206.9 110.9 203.2Z" fill="#575B5B"/>
<path d="M110.9 203.2C111.1 206.7 111.2 210.2 111.4 213.7C111.3 214.1 111.3 214.5 111.3 214.9C111.4 215.3 111.4 215.7 111.3 216.2C111.3 216.6 111.3 217.1 111.2 217.5C111.5 219.7 111.9 221.8 110.9 223.9C106.2 225.6 101.4 226 96.7 223.8C96.3 217 97.6 210.1 95.4 203.4C100.7 203.3 105.8 203.3 110.9 203.2Z" fill="#52B34B"/>
<path d="M53.3001 229.9C53.8001 230.4 54.3001 230.9 54.8001 231.4C55.2001 232.6 55.6 233.7 56 234.9C58.6 242.5 61.6001 243.9 68.9001 240.7C72.2001 241.8 75.7 240.5 79 241.5C80 246.8 77.5001 251.1 71.8001 253.8C66.9001 256.2 61.7001 255.5 58.4001 252.1C55.5001 249.1 54.5 245.1 52.2 241.8C51.7 239.4 51.5 236.8 50.5 234.6C49 231.2 51.5001 230.9 53.3001 229.9Z" fill="#9F9C21"/>
<path d="M79 241.7C75.7 241.1 72.1 242.7 68.9 240.6C76 240.2 83.2 239.8 90.3 239.4C91.4 248.3 86.1 254.1 80 259C75.5 262.6 70 263.7 64.8 259.7C65 259.4 65.1 259.2 65.3 258.9C66.9 257.6 68.8 257.8 70.7 257.7C77.1 257.1 83.3 251.8 84.7 245.8C85 244.4 84 244 83 243.6C81.4 243.5 80 242.9 79 241.7Z" fill="#B3B34F"/>
<path d="M132.8 190.5C132.3 190 131.8 189.6 131.3 189.1C132.1 188.7 132.9 188.4 133.7 188C141.8 188 149.9 188.1 158 188C160.8 188 163.5 188.5 166.1 189.5C168.3 190.4 169 192 167.8 194.1C166.5 196.2 164.8 195.6 163.7 194C161 190.3 157.3 190.5 153.4 190.6C146.5 190.7 139.6 190.5 132.8 190.5Z" fill="#575757"/>
<path d="M140.4 178.8C141.1 177.5 141.4 175.9 143.2 175.5C151 177.8 159 176 167 176.5C169.5 176.7 172.1 176.3 173.6 179.1C174.8 181.1 175.6 183.2 173.2 184.6C170.9 185.9 170.3 183.4 170 182C169.2 178.9 166.9 179.1 164.5 179.1C156.5 179 148.5 178.9 140.4 178.8Z" fill="#585656"/>
<path d="M149.2 171.2C149.2 170.8 149.3 170.5 149.3 170.1C150.2 168.8 151.1 167.8 152.9 168.5L153.2 169C159.8 171.1 166.6 169.3 173.3 169.9C175.2 170.1 177.1 170 179 170C181.2 169.9 182.8 171 183.3 173.1C184 175.8 182 176.7 179.2 177.5C179.4 171.7 176 171.2 171.4 171.3C164 171.6 156.6 171.3 149.2 171.2Z" fill="#605F5F"/>
<path d="M56 225.4C69.1 224.3 82.3 225.3 95.4 224.9C100.6 224.2 105.7 224 110.9 225C109.7 226.6 107.9 226.3 106.2 226.3C89.8 226.4 73.5 226.6 57.1 226.7C56.8 226.7 56.4 225.9 56 225.4Z" fill="#081A00"/>
<path d="M160.9 214.6C160 218.3 162.6 222.6 158.5 224.4C156.6 225.3 153.6 223.4 153.2 220.3C152.5 215.1 156.1 214.7 160.9 214.6Z" fill="#5B585A"/>
<path d="M244.1 211.1C243.9 214.4 243.7 217.8 243.5 221.1C243.2 212 239.6 203.6 238.9 194.6C241.7 194.6 242.2 196.6 242.5 198.7C243 202.9 243.6 207 244.1 211.1Z" fill="#A7CA84"/>
<path d="M160.8 240.9C160.5 242.6 161.7 245.3 158.4 244.8C155.9 244.4 153.1 243.9 153.3 240.4C153.4 237.4 156.1 236.5 158.2 236.4C161.5 236 160.3 239.1 160.8 240.9Z" fill="#5A5657"/>
<path d="M46.4 266C47.7 269.6 52.2 271.3 49.4 275.3C48.5 276.5 46.6 277.5 45 275.9C41.8 272.7 43.5 269.9 46.4 266Z" fill="#433E3F"/>
<path d="M168.8 265.8C169.4 269.4 174.7 270.8 171.4 275.1C170.4 276.4 169 277.4 167.3 275.6C164 272.1 165.5 269.3 168.8 265.8Z" fill="#5A5859"/>
<path d="M185 164.9C185.4 165.3 185.8 165.8 186.2 166.2C175.6 166.8 164.9 165.2 154.5 167.8C155.1 163.9 158.3 165.2 160.5 165C168.3 164.4 176.1 166 183.8 163.7C184.1 164.1 184.6 164.5 185 164.9Z" fill="#71A96D"/>
<path d="M165.1 259.3C162.2 259.6 159.1 260.8 157.9 258C156.5 254.7 159.9 253.7 162.1 252.1C164.5 254.2 164.6 256.6 165.1 259.3Z" fill="#5B5859"/>
<path d="M162.5 207.8C159.5 206.7 156.5 205.5 157.3 202.3C157.8 200 160.6 200.6 162.1 201.3C165.9 203 162.2 205.5 162.5 207.8Z" fill="#595758"/>
<path d="M184.4 283.1C182.9 285.4 181.6 287.5 178.9 285.7C177 284.5 177.6 282.4 178.8 281.4C181.3 279.1 182.4 282.4 184.4 283.1Z" fill="#5B5657"/>
<path d="M61.5 283.6C60.8 285 59.8 286.2 58.2 286.1C55.7 286 55.9 284.1 56 282.4C56.1 280.9 57 280 58.5 280.7C59.9 281.4 61.5 281.7 61.5 283.6Z" fill="#413D3E"/>
<path d="M190.2 166.4C192 166.4 193.9 165.9 195.3 167.6C195.1 169.4 195.3 171.7 192.5 171.3C189.6 170.9 190.5 168.3 190.2 166.4Z" fill="#625D5E"/>
<path d="M195.4 290C193.2 290 190.9 290 188.7 290C189.2 288.5 188 285.9 190.2 285.8C192.7 285.7 193.9 288.3 195.4 290Z" fill="#4D5257"/>
<path d="M54.9 191.9C54.5 193.1 54.1 194.3 52.5 194.1C51.2 193.9 51.1 192.8 50.9 191.8C52.7 190.2 53.4 187.5 56 186.7C56.4 187.5 56.8 188.2 57.2 189L57.3 189.5C56.7 190.5 55.8 191.3 54.9 191.9Z" fill="#433D3E"/>
<path d="M110.9 225C105.7 225 100.6 224.9 95.4 224.9C95.9 224.5 96.3 224.2 96.8 223.8C101.5 223.8 106.3 223.9 111 223.9C111 224.3 111 224.7 110.9 225Z" fill="#575B5B"/>
<path d="M113.8 217.7C117.1 217.6 120.3 217.6 123.6 217.5C120.4 219.8 117.1 219.4 113.8 217.7Z" fill="#AAAEB0"/>
<path d="M111 223.9C111.1 221.8 111.2 219.6 111.3 217.5C112.2 219.7 112.7 221.8 111 223.9Z" fill="#575B5B"/>
<path d="M113.7 194.5C113.1 195 112.5 195.4 111.9 195.9C111.6 195.9 111.3 195.8 111.1 195.6L110.6 195.3L110.8 194.7L111 194.4C111.9 194.4 112.8 194.5 113.7 194.5Z" fill="#22271A"/>
<path d="M111.3 216.1C111.3 215.7 111.3 215.3 111.3 214.8C111.4 215.1 111.5 215.4 111.6 215.7C111.6 215.9 111.4 216 111.3 216.1Z" fill="#575B5B"/>
<path d="M235.3 188.9C235.3 188.6 235.3 188.4 235.3 188.1C235.7 188.2 235.9 188.4 235.9 188.7C235.8 188.9 235.6 189 235.3 188.9Z" fill="#76B591"/>
<path d="M255.8 188.4L256.2 188.5L256.3 188.9C256.2 189.2 255.9 189.3 255.7 189.2C255.6 188.9 255.6 188.6 255.8 188.4Z" fill="#B2D465"/>
<path d="M275.8 231.5C275.7 230.6 275.6 229.8 275.6 228.9C272.6 224 270.3 219 274.3 213.5C274.3 212.3 274.3 211.1 274.3 210C273.5 208.7 273.3 207.4 274.7 206.3C282.7 206.1 290.7 206 298.7 205.8C301.4 201.4 299.7 196.4 300.6 191.7C302.3 182.1 302.3 172.2 307 163.3C314.5 162.3 322.1 160.8 328.5 166.9C325.4 163.3 324.2 162.8 319.7 162.6C316.1 162.4 312.5 163.3 309 162C308.2 161.3 307.9 160.4 307.9 159.4C307.9 158.4 308.3 157.5 308.7 156.6C310.3 153.5 310.9 149.8 314 147.6C317.8 146.9 321.6 147.6 325.3 147.2C330.5 146.7 335.1 147.3 336.8 153.4C336.3 148.4 333.4 147.2 328.8 147C324.4 146.8 319.5 149.3 315.7 145.1C314.9 141.9 317.8 140.6 319.2 138.6C319.7 138.2 320.3 137.8 320.9 137.6C321.5 137.5 322.1 137.5 322.7 137.7C327.3 138.7 332 138.1 336.6 138.1C340.9 138.1 345.3 137.6 347.4 143C347.2 139 344.5 138.3 341.7 138.2C337.3 138 332.8 138.2 328.4 138.1C326.4 138.1 324.1 138.7 322.6 136.5C322.8 133.3 325.3 132.6 327.6 131.5C337.8 130.4 348 129.1 358.2 131.8C361 134.2 362.3 138.3 366.5 139.2C366.5 140.5 366.5 141.8 366.5 143.1C365.8 145.5 363.8 146.2 361.7 146.8C352.5 149.6 345.6 155.7 341 163.8C323 195.6 322.9 227.9 340.4 259.7C347 271.6 357.4 279.9 372.6 278.6C374.1 278.5 375.6 278.5 376.6 279.9C375.6 285.7 370.1 286.8 366.4 289.8C363.4 289.1 362.4 285.6 358.9 284.2C359.7 290.9 355.9 291 351.2 290.8C341.3 290.5 331.4 291.1 321.5 290.1C305.7 287.2 295.6 276.9 287.6 264C286.6 262.4 285.7 260.8 284.7 259.1C279.5 254.9 278.5 248.5 276.5 242.7C275.9 239.2 273.1 235.5 275.8 231.5Z" fill="#221E20"/>
<path d="M286.1 16.9C291.1 49.7 296 82.4 301 115.2C301.3 116.9 301.3 118.6 301.5 120.3C299 121.7 297.2 124.5 293.8 124.1C288.5 121 290.4 115.2 289.6 110.9C284.9 83.5 281.2 56 276.8 28.5C276.2 24.8 274.2 20.7 277.2 16.9C280.2 16.9 283.1 16.9 286.1 16.9Z" fill="#D4D6D7"/>
<path d="M272.1 150C270.4 137.6 269.2 125.2 269.3 112.6C269.6 112.4 269.8 112.1 270.1 111.9C272.1 111 274.2 111.4 276.3 111.5C287.5 111.9 287.5 112 289.5 122.7C289.6 123.3 290 123.9 290.3 124.4C291.3 125.3 291.8 126.5 292.2 127.7C285.8 130.5 283.3 136.7 279.7 141.9C277.5 145 275.6 148.1 272.1 150Z" fill="#C7D2C5"/>
<path d="M292.2 127.8C291.5 127.4 290.7 127 290 126.6C287.8 124.8 288.8 122.3 288.5 120C287.7 114.4 286.8 108.9 279.6 108C277.6 107.7 276.1 106.4 275.9 104.2C275.7 101.7 277.1 100.1 279.3 99.4C283.3 98.2 283.8 95.5 283.1 91.9C282.4 88.6 282 85.2 281.7 81.8C281.2 76.8 280.4 72.6 274.1 72C272.1 71.8 270.8 70.2 270.8 67.9C270.8 65.7 272 64.1 274 63.7C278.5 62.6 278.8 59.6 278 55.9C276.2 47 276.8 37.8 275 28.8C273.6 26.8 273.7 24.4 273.4 22.2C273.3 21.2 273.2 20.3 273.3 19.3C273.4 18.3 273.8 17.5 274.6 16.9C275.5 16.9 276.3 16.9 277.2 16.9C282.4 51.2 287.5 85.5 292.7 119.8C292.9 121.3 293.4 122.7 293.7 124.1C293.2 125.3 292.7 126.5 292.2 127.8Z" fill="#333738"/>
<path d="M320.6 139.1C318.6 140.4 317.4 142.3 316.5 144.4C316.3 145.9 316 147.5 314.5 148.3C312.3 150.9 311.4 154.2 310.1 157.3C309.8 157.6 309.6 157.9 309.6 158.3C309.4 159.2 309.2 160.2 309.1 161.1C309.9 162.5 308.6 162.9 307.9 163.6C303.6 175.9 302.1 188.6 302 201.5C302 203.6 303.1 206.7 298.8 205.6C298 205 296.4 204.1 296.5 203.9C301 193.2 299.5 181.4 302.5 170.4C306.9 154.3 313.2 139.8 327.2 129.5C340.4 119.7 355.1 118.9 369.1 128C369.1 128.4 369.1 128.8 369.1 129.2C368.9 129.4 368.6 129.6 368.4 129.9C367.8 130.2 367.2 130.4 366.6 130.5C364 130.5 361.7 129.1 359.3 128.3C351.5 125.6 343.8 125.5 336.4 129.4C333.3 131 329.9 131.4 326.9 133C325.1 133.9 323.7 135.2 322.7 137C322.7 137.6 322.4 138 321.8 138.1L321.7 138.2C321.4 138.6 321 138.9 320.6 139.1Z" fill="#D3E779"/>
<path d="M274.7 206.2C274.6 207.4 274.5 208.7 274.3 209.9C272.2 209.9 270.1 209.8 268 209.8C259.2 209.8 259.2 209.8 259 200.9C260.1 199.6 261.4 199.6 262.7 200.6C262.3 204.8 264.1 206.3 268.3 205.9C270.4 205.8 272.6 206.1 274.7 206.2Z" fill="#545D4E"/>
<path d="M262.8 200.7C261.6 200.8 260.3 200.9 259.1 201C256.7 196.2 260.5 197.5 262.7 197.2C262.7 198.3 262.8 199.5 262.8 200.7Z" fill="#29411C"/>
<path d="M244.8 118.9C239.9 114.1 233.1 115.7 227.4 113.9C225.2 112.2 223.1 110.5 220.9 108.8C217.5 104.4 218.8 99.7999 220.3 95.1999C223.2 92.3999 224.3 95.9 226.2 96.9C227.8 97.9 229.7 97.7999 231.4 98.5999C231.8 98.6999 232.1 99 232.4 98.5C232 98.5 231.8 98.1999 231.9 97.6999C232.1 97.1999 232.4 96.8 232.9 96.4C236.1 95.4 239.9 97.2 242.8 94.5C244.3 102.6 244 110.8 244.8 118.9Z" fill="#85959A"/>
<path d="M220.7 94.9C223 99.5 220 104.2 220.9 108.8C214.8 104.2 208.1 102.2 200.5 103.4C198.7 102.7 196.8 103 194.9 103C186.6 102.9 185.3 100.7 189.2 93.2C191.9 90.8 195.2 91.7 198.3 91.5C201.2 91.3 204.3 92 206.7 89.7C207.2 89.3 207.8 89.1 208.4 89C210.6 89.1 211.4 91.8 213.7 91.7C215.9 92.4 218.3 92.5 220.2 94.1C220.4 94.4 220.5 94.7 220.7 94.9Z" fill="#565B58"/>
<path d="M190 93.4C189.9 94.2 189.7 95 189.6 95.9C188.5 102.4 188.7 102.7 195.1 102.8C197 102.8 198.9 102.5 200.6 103.5C190.7 103.5 180.8 103.5 171 103.5C169.6 100.2 170 97.2001 172 94.3001C173.8 93.0001 176 92.4 178.1 91.7C182.1 91.2 186.4 90 190 93.4Z" fill="#96ADAD"/>
<path d="M172.2 94.9C172.2 97.8 172.8 100.8 170.9 103.4C167.5 102.8 164 104.8 160.8 102.5C161.9 102.3 164.1 102.7 163.6 101.3C162.4 98 165.5 96.8999 166.1 94.5999C168.2 92.8999 170.2 92.7 172.2 94.9Z" fill="#5B685F"/>
<path d="M376.8 280.2C359.3 284.9 345.3 274.3 337 258.7C322.5 231 321.7 202.2 333.6 173.2C339.8 158.1 349.6 146.7 366.5 143.3C367.3 143.3 368.1 143.3 368.9 143.4C370.9 144.7 373.4 143.2 375.4 144.5C389.6 149.6 398.2 160.3 403.5 173.8C415.3 204 414.3 233.4 398 261.9C393.1 270.4 385.9 276.5 376.8 280.2Z" fill="#585A5B"/>
<path d="M326.8 133C338 123.2 350.6 121.5 363.8 128C364.9 128.6 366.1 129 367.3 129.5C367.8 129.6 368.3 129.7 368.8 129.9C368.8 130.2 368.9 130.4 368.9 130.7C369 131.1 369 131.4 369 131.8C368.2 132.2 367.3 132.7 366.5 133.1C364.2 134.5 361.9 135.5 359.1 134.5C357.2 132.6 354.8 133.1 352.6 133.1C344 133 335.4 133 326.8 133Z" fill="#1B5B20"/>
<path d="M359.1 134.5C361.4 133.1 363.7 131.8 366.5 133.1C366.5 135.2 366.5 137.3 366.5 139.4C360.7 142.8 359.8 138.8 359.1 134.5Z" fill="#535C55"/>
<path d="M375.4 144.5C373.2 144.3 370.9 145 368.9 143.4C371.1 143.5 373.5 142.6 375.4 144.5Z" fill="#221E20"/>
<path d="M369.1 131.9C369.8 131.8 370.2 132.3 370.4 132.9C369.9 132.6 369.5 132.2 369.1 131.9Z" fill="#1B5B20"/>
<path d="M209.1 89.4C208.8 89.6 208.5 89.7999 208.2 89.9999C202.7 93.8999 196.6 92.4999 190.9 91.4999C187.9 90.9999 188 87.2 187.8 84.4C187.1 76.5 188.7 68.7 189.3 60.9C190.2 49.5 190.6 37.9999 191.6 26.5999C191.9 23.2999 191.5 19.7 194 16.9C200.5 16.7 206.9 16.5 213.4 16.3C216.4 15 217.9 16.5999 218.8 19.1999C219.7 26.8999 217.8 34.3 216.8 41.8C214.9 56 214.2 70.3 211.4 84.4C211.1 86.3 211.1 88.3 209.1 89.4Z" fill="#9ED1D8"/>
<path d="M194 17C195.3 23.1 194.3 29.3 193.7 35.2C192.5 45.3 192.8 55.4 191.6 65.5C190.9 71.3 189.8 77.2 190.1 83.2C190.5 91 190.2 91 197.7 91C199 91 200.3 90.9 201.5 91C205.2 91.4 207.3 90.1001 206.8 85.8001C208.7 87.2001 207.7 88.8 208.2 90C208.6 93 206.9 93.4001 204.4 93.3001C199.6 93.2001 194.8 93.3001 190 93.4001C185.8 93.5001 181.7 93.5 177.5 93.6C171.3 94.3 170.7 94 171.1 88C172 73.4 173.9 58.9001 175.8 44.4001C176.7 37.9001 176.8 31.3001 177.8 24.8001C178.3 21.6001 178.3 17.9001 182.6 16.9001C186.4 16.8001 190.2 16.9 194 17Z" fill="#AADAE6"/>
<path d="M242.8 94.5C242.9 98.5 241.6 100.4 237.4 98.4C235.9 97.7 234.3 97.1 232.6 97.4C230.9 97.1 230.1 95 228.1 94.9C225.8 95.6 226.5 98.7 224.7 99.8C222.5 98.9 224.6 94.5 220.7 94.9L220.9 94.6C218.1 88 219.3 81.1 220 74.5C221.1 64.6 220.9 54.6 221.3 44.7C221.6 37.3 223 30 222.9 22.6C222.8 19.3 224 16.8 227.8 16.3C228.6 16.3 229.3 16.3 230.1 16.4C232.2 16.6 234.4 16.7 236.5 16.9C237.9 33.7 239.3 50.4 240.9 67.1C241.2 70 240.4 71.1 237.6 70.8C237.2 70.8 236.7 70.8 236.3 70.8C226.1 71.2 226.1 71.2 226 81.8C226.2 82.2 226.3 82.6 226.3 83C226.7 84.7 225 86.8 227.5 87.9C227.9 88.1 228.4 88 228.7 87.8C230.6 86 228.2 84.4 228.5 82.6C228.5 82.2 228.6 81.8 228.6 81.3C228.6 73.3 231.5 71.3 239.3 73.4C241.3 73.9 241.3 75.2 241.4 76.7C241.8 82.7 242.3 88.6 242.8 94.5Z" fill="#ADC1C8"/>
<path d="M182.5 16.7C179.3 21.3 179.7 26.9 179.3 32C178.4 43.3 176.9 54.5 175.4 65.7C174.3 74.1 173.7 82.5 173 90.9C172.7 94.7 175.8 92.9 177.5 93.5C176 95.1 174 94.6 172.2 94.8C170.2 94.7 168.1 94.6 166.1 94.5C166.1 93.8 166.2 93.1 166.2 92.5C166.8 91.2 166.3 89.7 167 88.4C169.7 64.6 172.4 40.7 175.1 16.9C176.7 16.2 178.7 17.2 180 15.5C181 15.5 181.9 15.8 182.5 16.7Z" fill="#A3D0D8"/>
<path d="M217.3 19.3C217.4 16.4 215.3 16.5 213.4 16.3C213 9.20005 213 9.19998 219.6 9.09998C221.3 9.09998 222.9 9.09998 224.6 9.09998C231.5 9.19998 231.6 9.30005 230 16.3L229.8 16.7C227.9 18 225.4 16.7 223.5 18.2C221.4 18.5 219.5 20.1 217.3 19.3Z" fill="#596057"/>
<path d="M262.9 29.4C263 34.6 260.8 36.3 255.3 36C243.3 35.5 243.3 35.9 242.1 23.8C241.9 21.5 241.7 19.1 241.4 16.8C248.2 16.8 254.9 16.8 261.7 16.8C264.8 20.8 264.8 25 262.9 29.4Z" fill="#F2F3F2"/>
<path d="M262.9 29.4C260.8 25.4 262 21 261.7 16.8C266 16.8 270.3 16.8 274.6 16.8C274.7 17.8 274.9 18.8 275 19.7L275.1 20.2C275.3 22.7 275.6 25.3 275.8 27.8C276.5 29.3 275.7 29.5 274.4 29.4C270.7 29.5 266.8 29.5 262.9 29.4Z" fill="#D3D6D4"/>
<path d="M166.9 88.3C167.1 89.8 167.1 91.2 166.1 92.4C165.8 91 165.8 89.6 166.9 88.3Z" fill="#5B685F"/>
<path d="M104.6 163.7C104.5 164.1 104.5 164.4 104.5 164.8C103.5 166.1 102.2 165.5 100.9 165.5C89.2 165.4 77.6 165.1 65.9 165.3C61.2 165.4 59.6 164 59.7 159.2C59.9 146.7 59.7 134.2 59.6 121.6C60.2 121.1 60.7 120.6 61.3 120.1C75.3 119.2 89.2 119.3 103.2 120.1C103.7 120.6 104.1 121.1 104.6 121.6C105.6 135.6 105.5 149.7 104.6 163.7Z" fill="#585A5C"/>
<path d="M104.6 163.7C104.6 149.7 104.6 135.7 104.5 121.6C106.4 123.3 105.7 125.5 105.7 127.6C105.8 139.6 105.7 151.7 105.7 163.7C105.4 163.7 105 163.7 104.6 163.7Z" fill="#95BF89"/>
<path d="M103.2 120.2C89.2 120.2 75.3 120.2 61.3 120.2C62.6 118.7 64.4 119 66 119C76.8 119 87.6 119 98.4 119C100.1 119 101.8 118.8 103.2 120.2Z" fill="#95BF89"/>
<path d="M87.9 171.4C92.6 171.4 97.2 171.4 101.9 171.4C102 171.8 102 172.2 102 172.6C97.8 173.4 93.4 171.7 89.3 173.8C92 177.8 92.8 181.7 88.8 185.4C87.2 186.2 86.6 185.6 86.6 183.9C86.6 180.2 86.6 176.4 86.6 172.7C87.1 172.3 87.5 171.8 87.9 171.4Z" fill="#597D50"/>
<path d="M85.3 188.9C78.5 189.3 71.7 189.3 65 188.8C65 188.5 65 188.1 65 187.8C65.3 187 65.7 186.3 66.5 185.9C74 182.3 74 182.3 72.2 174.1C72 171.9 74.3 172.4 75.2 171.4C71.7 168.5 67 171.5 63.4 168.2C71.2 168.2 79 168.2 87 168.2C84.1 175 85.8 182 85.3 188.9Z" fill="#7BC46A"/>
<path d="M72.9 173.6C78.2 176.5 74.8 181.3 75.1 185.1C75.4 189 71.7 186.4 69.8 187C68.2 187.5 66.5 187.6 64.9 187.8C64 187.5 63.2 187.2 62.3 186.9C61.3 185.3 61.6999 183.6 61.6999 181.9C61.5999 172 62.6 171.2 72.9 173.6Z" fill="#F4F9F2"/>
<path d="M88.9 185.5C89.1 181.6 89.2 177.7 89.4 173.9C92.4 173.9 95.3 174 98.3 173.9C101.1 173.8 102.2 175.1 102 177.7C101.8 180.6 103.6 184.7 100.9 186C97.3 187.8 92.8 188.2 88.9 185.5Z" fill="#E5EDE2"/>
<path d="M72.9 173.6C62.6 173.9 62.6 173.9 62.5 184.4C62.5 185.2 62.4 186.1 62.3 186.9C59.4 182.7 61.1999 178.1 61.0999 173.6C61.0999 171.8 62.9 171.6 64.4 171.5C67.9 171.4 71.5 171.4 75 171.4C74.4 172.1 73.7 172.9 72.9 173.6Z" fill="#557552"/>
<path d="M98.5 168.3C95.5 170.8 93.5 170.1 90.5 169.4C93.2 166.9 95.2 167.7 98.5 168.3Z" fill="#7BC46A"/>
<path d="M100.9 165.5C102.1 165.3 103.3 165 104.5 164.8C103.6 166.5 102.4 166.5 100.9 165.5Z" fill="#7BC46A"/>
<path d="M87.9 171.4C87.5 171.9 87.1 172.3 86.7 172.8C87.1 172.3 87.5 171.9 87.9 171.4Z" fill="#7BC46A"/>
<path d="M369.1 129.2C370 129.8 369.6 130.3 368.9 130.7C368.6 130.2 368.6 129.7 369.1 129.2Z" fill="#D3E779"/>
<path d="M152.8 168.5C151.6 169 150.4 169.5 149.2 170.1C149.7 167.7 150.7 167 152.8 168.5Z" fill="#71A96D"/>
<path d="M187.2 259.6C185 259.7 184.1 257.5 182.3 257C181.2 256.1 179.5 255.8 179.1 254.1C179 253.1 179.2 252.3 180 251.6C180.6 251.4 181.2 251.4 181.8 251.5C192.1 256.7 197.7 254.7 202.7 244C208.7 231.3 206.4 219.2 199.5 207.7C196.6 202.9 191.1 202.2 185.7 205.2C183.6 206 181.5 207.9 179.3 205.4C181.6 199.1 186.6 195.8 192.7 195.4C199.6 195 204.9 198.8 207.9 205.1C215.2 220.1 216.2 235.1 208.2 250.3C204.6 257.3 196 263.6 187.2 259.6Z" fill="#A19C1A"/>
<path d="M187.2 259.6C202.7 261.9 209.9 249.6 211.7 234.7C213.1 223.1 211.3 211.8 203.8 202.4C197.6 194.6 184.5 195.2 179.9 206C180.5 210 179.4 213 174.8 213.5C174.1 212.7 174 211.8 174.7 210.9C175.7 209 176.6 207.1 177.6 205.2C181.1 198.8 185.8 193.4 193.6 193.3C201.8 193.2 206.9 198.8 210.1 205.5C217.3 220.1 217.3 235 210.1 249.6C207.6 254.8 204 259.3 197.9 260.9C195.3 261.8 192.7 261.7 190.1 261C189 260.9 187.9 260.6 187.2 259.6Z" fill="#B7B73F"/>
<path d="M174.7 210.9C174.7 211.8 174.8 212.7 174.8 213.6C174.9 213.9 174.9 214.1 175 214.4C175.3 215.4 175.3 216.5 175.2 217.6C175.2 219.5 174.1 221.3 174.2 223.2C174.2 224 174.4 224.7 174.7 225.5C176.2 227.1 177.7 228.7 176.3 231.2C176 231.7 175.7 232.1 175.4 232.5C173.9 235.2 175.6 237.6 176.2 240.1C176.4 240.6 176.6 241.2 176.7 241.7C177.3 244.6 178.7 247.1 179.7 249.8C179.8 250.4 179.8 250.9 179.6 251.5C179.3 252.6 179.1 253.6 179.9 254.6C181 255.1 182 255.8 182.3 257.1C180.2 257.2 178.4 257.2 177.3 254.5C175.9 251.1 174.6 247.4 171.7 244.8C171.2 244.4 170.6 243.5 170.7 243.3C174.3 236.8 168.2 230.9 169.7 224.4C170.7 219.5 171.5 214.8 174.7 210.9Z" fill="#625D33"/>
<path d="M190.1 261C192.7 261 195.3 260.9 197.9 260.9C195.4 262.7 192.8 262.7 190.1 261Z" fill="#A19C1A"/>
<path d="M278.4 242.9C280.6 248.4 282.7 254 284.9 259.5C284 259.4 283.1 259.4 282.1 259.3C281.2 256 278.5 257.2 276.4 257C273.7 256.8 271 256.9 268.3 257C265.4 257.1 264 256 264.4 252.9C267.4 252.4 270.2 254.1 273.2 253.5C274.7 253.2 276.9 253.7 276.5 250.9C276.6 249.1 274.7 248.2 274.5 246.6C274 244.1 272 244.3 270.1 244.2C268.1 244.1 265.9 244.8 264.3 243C269 239.2 273.7 239.6 278.4 242.9Z" fill="#6BA275"/>
<path d="M79 241.7C80.7 241.7 82.4 241.7 84.2 241.7C85 249.1 78.3 257.5 71.1 258.2C69 258.4 66.8 257.8 65 259.4L64.8 259.6C57.2 256 54.4 249.1 52.3 241.6C53.1 242.5 54.2 243.3 54.8 244.3C57.5 249.2 60.4 254 67.1 253C73.6 252.1 77.3 247.9 79 241.7Z" fill="#B7B332"/>
<path d="M52.4 227.6C52.7 228.1 53.1 228.6 53.4 229.1C53.1 228.6 52.7 228.1 52.4 227.6Z" fill="#9F9C21"/>
<path d="M269.3 112.6C265.6 114.5 261.9 112.5 258.2 112.5C253.1 112.5 250.7 113.9 251.4 119.3C251.6 120.6 251.4 121.8 250.4 122.8C248.2 97.3001 246.1 71.8001 243.8 46.3001C243.4 41.8001 244.5 40.2001 249 40.8001C253.2 41.3001 257.4 40.3001 261.6 41.3001C263.7 44.7001 260.6 49.0001 263.4 52.3001C264.1 52.3001 264.8 52.4001 265.5 52.4001C266.8 54.6001 267.6 57.1 267.6 59.6C267.7 74.6 270 89.5 270.6 104.5C270.7 105.9 270.8 107.3 270.8 108.7C270.9 110.3 270.4 111.6 269.3 112.6Z" fill="#F3F3F3"/>
<path d="M268.2 106.3C267 89.8 265.8 73.2 264.5 56.7C264.4 55.1 265 53.8 265.5 52.5C275 51.4 275 51.4 274.9 41.6C274.8 37.6 274.6 33.6 274.5 29.6C275 29.1 275.4 28.6 275.9 28C278.6 39.2 279.2 50.7 281.2 61.9C281.9 65.6 279.3 64.7 277.3 65C275.3 65.2 272.1 63.6 272.3 67.7C272.4 71.2 275.3 70.2 277.1 70C281.7 69.4 282.9 71.6 283.3 75.7C284 82.5 285 89.2 286.1 95.9C286.7 99.4 286.5 101.7 281.9 101.2C279.9 101 276.7 99.9 277 104C277.3 107.6 280.2 106.4 281.9 106.1C286.8 105.4 288.3 107.8 288.4 112.1C288.6 117 290.3 121.7 289.9 126.6C285.9 126 287.1 122.8 287.2 120.5C287.5 115.5 285.5 113.4 280.5 113.9C276.7 114.2 272.9 113.9 269.2 112.6C269.2 111.3 269.2 110.1 269.2 108.8C268.6 108.1 268.9 107 268.2 106.3Z" fill="#D1D3D4"/>
<path d="M228.5 82.7C232.9 82.9 233.2 85.8 232.2 88.9C231.3 92 228.4 91.1 226.2 90.8C222.2 90.3 223.5 87.1 223.8 84.8C223.9 83.8 225.2 82.8 226 81.8C226.8 82.2 227.6 82.5 228.5 82.7Z" fill="#BC6E46"/>
<path d="M263.5 52.3C259.7 49.1 262.3 44.9 261.7 41.3C264.2 44.7 261.2 48.9 263.5 52.3Z" fill="#D1D3D4"/>
<path d="M86.8 213.5C85.7 214.8 84.1999 214.7 82.6999 214.7C69.3999 214.7 56.1 214.7 42.8 214.7C41 214.7 38.7 215.3 38.3 212.5C38 209.7 40.1 209.6 42 209.4C55.9 208.6 69.7999 209.3 83.6999 209C87.1999 209.1 87.8 210.7 86.8 213.5Z" fill="#4E5E4B"/>
<path d="M86.8 213.5C86.9 209.4 84.1 209.6 81.2 209.6C68.2 209.6 55.1 209.5 42.1 209.4C44.6 207.6 47.4 208.5 50.1 208.4C61.1 208.3 72.1 208.4 83.1 208.4C86.7 208.5 89.6 209 86.8 213.5Z" fill="#90A889"/>
<path d="M110.7 194.7C110.8 195 111 195.3 111.1 195.6C110.6 195.5 110.1 195.5 109.6 195.4C109.9 195.2 110.3 194.9 110.7 194.7Z" fill="#575B5B"/>
<path d="M274.3 213.5C274.7 218.6 275.2 223.8 275.6 228.9C272.5 227.8 269.3 229 266.2 228.9C263 228.8 261.9 227.6 261.6 224.4C260.8 213.7 260.6 213.7 271.7 213.6C272.6 213.6 273.5 213.5 274.3 213.5Z" fill="#565C58"/>
<path d="M278.4 242.9C273.7 243 269 243 264.3 243.1C262.4 240.3 262.2 236.7 262.7 233.9C263.6 229.2 268.1 233.6 270.8 231.9C272 231.1 274.1 231.6 275.8 231.5C276.7 235.3 277.6 239.1 278.4 242.9Z" fill="#4F5E51"/>
<path d="M278.3 250.6C273.7 250.6 269 250.6 264.4 250.7C264.2 248.3 265 246.7 267.8 246.8C270.1 246.9 272.3 246.7 274.6 246.6C277.2 246.6 278.9 247.6 278.3 250.6Z" fill="#4A5549"/>
<path d="M185 164.9C184.6 164.5 184.2 164.1 183.8 163.7C184.2 164.1 184.6 164.5 185 164.9Z" fill="#4EB548"/>
<path d="M54.9001 191.9C54.8001 190.2 55.6001 189.4 57.3001 189.5C58.0001 190.6 60.3001 191.2 58.8001 193C57.0001 195.3 56.1001 192.8 54.9001 191.9Z" fill="#221E20"/>
<path d="M66 248.8C65.8 249.1 65.6 249.9 65.1 250C64 250.3 63.7 249.4 63.7 248.5C63.7 247.8 64.1 247.3 64.8 247.3C65.5 247.3 65.9 247.8 66 248.8Z" fill="#554C17"/>
<path d="M65 259.5C65.2 258.4 65.6 257.2 66.8 257.3C77.4 257.5 80.8 249.7 84.2 241.8C88.4 241.5 88.2 243.6 86.8 246.5C81.8 257.3 77.6 259.9 65 259.5Z" fill="#9E9C16"/>
<path d="M321.8 138.1C321.7 137.4 322 137 322.7 137C329.7 137 336.7 137 343.7 137C345.6 137 347.5 136.8 349.1 138.2C353.4 142 352.9 144.1 346.6 147.6C346.3 147.4 345.7 147.1 345.7 146.8C345.4 140 341.4 138.9 335.5 139.2C330.9 139.6 326.1 140.6 321.8 138.1Z" fill="#58575A"/>
<path d="M321.4 207.9C318.2 207.8 316.4 206.1 314.6 204.8C311.5 202.6 312.1 199.1 313.5 196.9C315 194.4 318.5 194 321.5 194.6C323.4 195 323.1 196.9 322.9 198.3C322.5 201.5 321.9 204.6 321.4 207.9Z" fill="#595C5D"/>
<path d="M314.4 148.4C314.9 147 315.1 145.4 316.4 144.5C319.3 147.2 322.8 145.5 326.1 145.9C328.4 146.2 330.8 145.9 333.1 146C337 146.2 339.3 149.1 340.5 152.2C341.6 155 338.6 156.4 336.9 158C336.5 157.8 336.2 157.7 336.1 157.6C333.9 148.2 327.4 147.4 319.4 148.8C317.9 149 316.1 148.5 314.4 148.4Z" fill="#5B5B5B"/>
<path d="M307.8 163.7C308.2 162.9 308.6 162.1 309 161.2C315.7 161.4 322.5 160 329.1 162.5C330.6 163.1 333 163.3 332.7 165.4C332.4 167.4 331.7 169.8 329.6 170.7C327.8 171.4 326.4 169.5 325.6 168.2C321.1 161 313.9 164.7 307.8 163.7Z" fill="#5C5A5A"/>
<path d="M323 232.8C315 232.4 312.3 230.7 312.9 226.6C313.5 222.6 317.8 220.9 319.9 221.7C324.9 223.7 322.4 228.8 323 232.8Z" fill="#595A5C"/>
<path d="M332.4 258.6C333.6 263.8 340.3 265.5 336.4 270.9C335.1 272.6 332.9 274.1 330.5 271.7C325.9 267.2 329.1 263.8 332.4 258.6Z" fill="#5B595A"/>
<path d="M328.3 251.3C324.6 251 319.7 254.2 318.5 248.6C317.8 245.5 321.6 242.3 323.8 242.5C328.1 242.9 326.6 248.2 328.3 251.3Z" fill="#595A5D"/>
<path d="M324.6 186.9C322.2 185.1 320.6 183.9 318.9 182.7C317.5 181.6 316.1 180.3 317.1 178.5C318.5 175.8 321 176.6 323.2 177.2C325 177.7 327.2 177.8 326.5 180.7C326 182.5 325.4 184.3 324.6 186.9Z" fill="#585657"/>
<path d="M345.6 275.7C347.9 278.7 352.6 278.4 351.3 282.7C350.8 284.3 348.8 287.2 346 285.5C341.7 282.8 345 279.8 345.6 275.7Z" fill="#5B585A"/>
<path d="M309.6 158.4C309.8 158.1 309.9 157.7 310.1 157.4C309.9 157.8 309.7 158.1 309.6 158.4Z" fill="#5C5A5A"/>
<path d="M320.6 139.1C320.7 138.5 321 138.1 321.7 138.1C321.6 138.8 321.2 139.1 320.6 139.1Z" fill="#58575A"/>
<path d="M275.2 20.3L274.9 20.1L275.1 19.8L275.4 20L275.2 20.3Z" fill="#4EB44D"/>
<path d="M369.1 129.2C369 129.7 369 130.2 368.9 130.7C368.4 130.3 367.8 129.9 367.3 129.5C367.9 129.4 368.5 129.3 369.1 129.2Z" fill="#BED68F"/>
<path d="M224.7 99.8C224.7 97.5 224.7 95.2 224.7 92.5C228.7 91.8 232.9 90.8 232.6 97.4C232.5 97.7 232.5 98.1 232.5 98.5C232.8 99 232.7 99.3999 232.2 99.6999C229.7 99.6999 227.2 99.8 224.7 99.8Z" fill="#EAECEC"/>
<path d="M232.2 99.7C232.3 99.3 232.4 98.9 232.5 98.5C232.6 98.8 232.7 99.2 232.7 99.5C232.7 99.6 232.4 99.6 232.2 99.7Z" fill="#ADC1C8"/>
<path d="M222.2 16.8C224.7 16.8 227.3 16.8 229.8 16.8C225.6 18.1 224.9 21 224.5 25.2C222.7 47.5 223.7 69.9 221.5 92.2C221.4 93 221.1 93.8 220.8 94.6C218.2 94.5 215.6 94.6 213.2 93.4C212.4 92.6 212 91.7 212 90.6C212.3 88.2 212.7 85.7 212.2 83.3C214.1 65 216.7 46.9 218.6 28.6C219 24.6 218.8 20.1 222.2 16.8Z" fill="#D2D5D7"/>
<path d="M222.2 16.8001C219.6 39.4001 216.9 61.9001 214.3 84.5001C213.2 86.6001 214.4 89 213.4 91.2C213.4 92 213.3 92.7001 213.3 93.5001C210.2 93.9001 209.4 92.0001 209.2 89.5001C211.9 66.1001 214.6 42.8001 217.4 19.4001C218.4 17.6001 219.9 16.4001 222.2 16.8001Z" fill="#2E3E3C"/>
<path d="M340.9 232.8C339.6 229.2 338 225.7 338.2 221.8C337.7 219.2 336.7 216.4 340.3 215.1C340.8 214.2 341.6 212.6 340.9 212.2C333.9 208.6 338.1 203.1 338.5 198.3C339.7 194.1 341.4 190 343.3 186.1C344.9 183.1 347.3 180.8 350.2 179.1C351.4 178.6 352.6 178.2 353.8 177.7C354.5 177.5 355.1 177.4 355.8 177.4C367.1 178.4 373.4 185.6 376.5 195.5C381 209.7 380.6 223.7 372 236.5C366 245.5 359.1 247.3 348.8 243.4C344.5 241.2 343.2 236.6 340.9 232.8Z" fill="#F2EA2E"/>
<path d="M344.6 186.7C342.6 190.6 340.5 194.4 338.5 198.3C340 186.4 344.2 176 355.3 169.9C363.3 165.5 371.6 166.8 378.1 173.3C385.1 180.3 388.7 188.9 390.5 198.6C393.5 215.2 391.2 230.8 381.5 244.8C375 254.2 359.9 260.2 349.8 246.9C350.5 246.1 351.4 245.9 352.4 245.9C365.7 252.2 374.1 249.5 380.7 236.1C389 219.4 387.6 193.8 375.7 181.4C364.7 170.2 351.8 172.1 344.6 186.7Z" fill="#B8B73B"/>
<path d="M352.4 246.8C351.5 246.8 350.6 246.9 349.7 246.9C349.3 246.9 349 246.8 348.7 246.6C347.6 245 347.2 243.3 348.6 241.7C360.7 245.3 367.2 243.2 372.5 231.9C379.1 217.8 379.4 203.2 371.1 189.2C367.2 182.6 361.5 179.2 353.8 179.2C354.2 174.9 357.8 175.3 360.5 175.3C366.1 175.2 370.6 177.9 374.3 182.1C387.3 197 388 225.9 375.6 241.4C368.5 250.1 361.4 251.8 352.4 246.8Z" fill="#BCB81F"/>
<path d="M348.6 241.6C348.6 243.2 348.7 244.9 348.7 246.5C344.8 242.7 341.8 238.3 340.9 232.7C343.5 235.7 346 238.7 348.6 241.6Z" fill="#A3A341"/>
<path d="M340.3 215C338.3 216.8 338.4 219.3 338.2 221.7C338.1 219.2 333.9 215.5 340.3 215Z" fill="#E0DD95"/>
<path d="M174.8 241.5L174.7 241C174.3 237.8 173 234.6 174.7 231.3L174.8 231.4C175.6 230.8 176.4 230.7 177.3 231C177.8 231.3 178.2 231.7 178.5 232.2C179.5 234.1 178.7 236.8 181 238.3C186.8 243.6 189.2 238.1 192.3 234.8C193.6 231.6 195.2 228.4 192.7 225C192.1 224.4 191.6 223.7 191.1 223C186.9 217.2 186.4 217.1 180 220.6C174.4 222.8 174.3 222.7 174.2 216.4C174.2 215.4 174.1 214.4 174.8 213.6C177 211.4 178.5 208.8 179.9 206C181.6 205.1 183.3 204.1 185 203.2C196.5 200.4 205.3 209.3 204.2 222.5C203.6 224.3 201.7 224.4 200.5 225.4C200.4 225.8 200.4 226.2 200.8 226.6C202.4 227.5 204.5 227.6 205.3 229.5C205.9 237.4 203.8 244.6 198.4 250.4C193.2 256 189.9 256.3 182.7 252.7C178.9 249.7 176.7 245.8 174.8 241.5Z" fill="#F1EB2F"/>
<path d="M182.5 251.8C190.1 256.3 195.6 251.9 199.7 245.3C202.7 240.4 204 234.8 204 228.9C203.5 228.3 203 227.7 202.8 226.9C202.6 226.1 202.6 225.3 202.9 224.6C203 224.3 203 224.1 203.1 223.8C203.4 218.9 201.8 214.6 199.5 210.5C196.4 204.9 191.4 202.8 185.1 203.2C190.7 199.9 196.7 200.4 200.4 205.4C210.5 219.3 211.3 239.3 200.2 251.5C193.6 258.8 188.7 258.7 181.2 252C181.4 251.8 181.6 251.6 181.8 251.4C182 251.6 182.3 251.7 182.5 251.8Z" fill="#BCB81B"/>
<path d="M178.6 251.9C178.7 251.5 178.8 251.1 178.9 250.7C180.4 249.6 181.2 249.8 181.2 251.8L181.1 252C180.7 252 180.3 252 179.8 252.1C179.3 252.6 178.9 252.5 178.6 251.9Z" fill="#BCB81B"/>
<path d="M178.6 251.9C179 251.9 179.4 252 179.8 252.1C179.8 252.9 179.8 253.6 179.8 254.4C179 253.9 178.7 252.9 178.6 251.9Z" fill="#595A5C"/>
<path d="M172.5 226.2C172.6 225.4 172.6 224.6 172.7 223.8C175.7 221.6 179.5 222 182.7 220.7C185.2 219.7 187.3 221.7 188.3 223.8C190 227.6 190.3 231.6 187.7 235.1C186.3 237 184.4 238.3 181.7 237.8C178 237.2 179.2 233.3 177.3 231.4C177.1 228.5 175.4 226.8 172.5 226.2Z" fill="#F1EB2F"/>
<path d="M177.4 231.5C178.1 231.9 179.2 232.2 179.4 232.8C180.3 235 180.7 237.5 184.1 236C187 234.7 188.9 228.8 187.2 225.4C186.1 223.2 184.9 220.9 181.4 223.2C178.9 224.8 175.6 223.6 172.7 223.9C172.2 221.2 173.3 218.8 173.8 216.3C174.1 215.5 174.4 215.6 174.8 216.2C174.2 221.7 176.9 220.5 179.9 218.8C189.6 218.5 194.7 226.4 190.4 235.3C187.9 240.5 185.5 241.3 179.7 239.2C175.5 237.6 178.2 234 177.4 231.5Z" fill="#DEDC4F"/>
<path d="M181.2 251.9C180.7 251.1 179.9 250.8 178.9 250.8C176.9 248 174.9 245.2 174.7 241.5C177.9 244.4 179.8 248.4 182.4 251.8C182.1 251.9 181.7 251.9 181.2 251.9Z" fill="#DEDC4F"/>
<path d="M174.7 231.3C174.7 234.5 174.7 237.7 174.7 241C172.9 238.5 172.8 235.5 172.4 232.7C172.1 230.8 173.3 230.6 174.7 231.3Z" fill="#DEDC4F"/>
<path d="M172.5 226.2C176.4 225.9 177.9 227.8 177.4 231.5C176.5 231.5 175.6 231.4 174.8 231.4C177.4 228.1 173.6 227.8 172.5 226.2Z" fill="#DEDC4F"/>
<path d="M174.9 216.1C174.6 216.1 174.2 216.2 173.9 216.2C173.7 215.1 173.9 214.2 174.9 213.6C174.8 214.4 174.9 215.3 174.9 216.1Z" fill="#B7B73F"/>
<path d="M268.2 106.3C269.1 106.9 269.3 107.8 269.3 108.8C268.5 108.2 268.2 107.3 268.2 106.3Z" fill="#D6EAD0"/>
<path d="M213.3 91.2C213 88.9 212.5 86.6 214.2 84.5C214.5 86.8 214.4 89.1 213.3 91.2Z" fill="#565B58"/>
<path d="M352.4 246.8C363.1 249.6 371.2 246.1 376.2 236.4C385.2 218.9 384.6 201.7 373.9 185.2C368.8 177.3 361.9 175.6 353.8 179.2C353 179.9 351.9 179.6 351.2 180.4C348.6 182.1 346.5 184.3 344.6 186.7C343.8 182.3 347.1 179.7 349.8 177.6C358.5 170.6 365 168.5 375.9 178.5C392.3 193.6 390.9 227.5 378.9 243.9C371.9 253.2 360.3 254.5 352.4 246.8Z" fill="#A09B19"/>
<path d="M356.3 195.8C364.7 202.3 367.2 215.2 361.9 224.3C358.1 230.6 353.7 231.3 347.3 226.3C346.8 225.2 347.4 224.7 348.3 224.5C350.5 224.6 352.8 225 354.9 223.8C355.8 223.5 356.2 222.8 356.3 221.9C357.1 218.6 357.5 215.3 357.5 212C357.5 204.9 355.6 202.9 348.5 201.9C347.6 201.4 346.9 200.8 347.2 199.6C347.7 198.9 348.3 198.1 348.8 197.4C349.1 196.2 350.5 196.5 351.2 195.8V195.9C352.9 194.2 354.6 194.3 356.3 195.8Z" fill="#221B0D"/>
<path d="M348.8 201C353.9 199.6 356.5 202.7 357.8 206.8C359.5 211.9 360 217.2 356.3 221.9C355.5 219 355.8 216.2 356.2 213.2C357.1 205.4 355.2 203.4 347.2 203.4C346.6 201.9 347.7 201.4 348.8 201Z" fill="#E9EA61"/>
<path d="M356.3 195.8C354.6 195.8 352.9 195.8 351.2 195.8C352 193.3 348.8 189.3 353.8 188.3C354.1 189 354.1 189.7 354.5 190.2C354.5 190.1 354.6 190 354.5 190C354.1 189.5 354 188.9 353.8 188.3C354 187 354 185.4 355.9 186.3C357.7 187.1 358.8 188.7 358.7 190.8C358.6 192.9 356.1 193.7 356.3 195.8Z" fill="#E7E95A"/>
<path d="M372.4 208.5C372.6 210 372 210.7 370.8 211C369.9 211.2 369.2 210.8 369 209.8C368.7 208.7 369.1 207.7 370.2 207.4C371.4 207.1 372.2 207.6 372.4 208.5Z" fill="#473402"/>
<path d="M357.5 236.7C357.8 238.4 357.1 239.2 355.9 239.3C354.7 239.5 353.9 238.7 353.9 237.5C353.9 236.7 354.4 235.9 355.3 235.6C356.7 235.2 357.2 236 357.5 236.7Z" fill="#544020"/>
<path d="M354.9 223.8C353.2 226.1 351 225.9 348.6 225C348.1 224.7 347.9 224.3 347.9 223.7C350.3 223.7 352.6 223.7 354.9 223.8Z" fill="#DED785"/>
<path d="M348.8 201C348.3 201.8 347.7 202.6 347.2 203.4C346.4 203.9 345.7 204.3 344.9 204.8L344.7 204.6C344.6 202.4 345.5 200.8 347.3 199.5C347.8 200 348.3 200.5 348.8 201Z" fill="#857B15"/>
<path d="M347.9 223.6C348.1 224 348.4 224.5 348.6 224.9C348.2 225.4 347.7 225.8 347.3 226.3C345.4 225.1 344.7 223.3 344.8 221.2L344.7 221.3C345.8 222.1 346.9 222.9 347.9 223.6Z" fill="#A2941A"/>
<path d="M351.3 195.8C350.9 196.9 349.9 197.2 348.9 197.4C349.1 195.9 350.1 195.7 351.3 195.8Z" fill="#E7E95A"/>
<path d="M344.9 204.8C344.7 205.3 344.5 205.8 344.3 206.3C344.2 206.2 343.9 206 343.9 206C344.1 205.5 344.4 205.1 344.7 204.6L344.9 204.8Z" fill="#857B15"/>
<path d="M351.2 180.3C351.8 179.3 352.7 179 353.8 179.1C353.1 180.1 352.2 180.3 351.2 180.3Z" fill="#BCB81F"/>
<path d="M344.8 221.2C344.7 221.1 344.5 221.1 344.4 221C344.5 221.1 344.6 221.2 344.8 221.2Z" fill="#A2941A"/>
<path d="M179.7 239C183.3 239 187.1 239.5 188.7 234.8C190.4 230.1 190.2 225.6 187.3 221.6C185.6 219.2 183.2 218.8 180.7 220.6C180.2 220.9 180.1 220.8 180 218.6C186.9 213.8 189.3 214.7 193.9 223.9C196.3 227.4 194.8 230.9 193.8 234.4C193.3 235.5 192.8 236.6 192.1 237.7C188.7 243.6 185.4 243.9 179.7 239Z" fill="#221B08"/>
<path d="M204 226.4C204 227.2 204 228.1 204 228.9C201.9 228.7 199.6 229.7 197.7 227.9C198.8 226.9 198.8 225.9 197.7 225C198.2 218.6 201.4 225.1 203 223.9C203.6 224.5 203.5 225.6 204 226.4Z" fill="#E3DC67"/>
<path d="M193.8 234.5C193.8 231 193.9 227.5 193.9 224C196.3 224 196.6 225.5 196.3 227.4C195.9 229.9 195.5 232.3 195 234.7C195 234.8 194.7 235.1 194.7 235.1C194.4 234.9 194.1 234.7 193.8 234.5Z" fill="#E3DC67"/>
<path d="M185.8 213.4C185.5 213.1 184.9 212.9 184.7 212.4C184.3 211.5 184.8 210.7 185.7 210.5C186.1 210.4 186.8 211 187 211.4C187.3 212.2 186.9 213 185.8 213.4Z" fill="#311F00"/>
<path d="M188.6 248.5C188.1 249 187.7 249.7 187.2 249.7C186 249.8 186.1 248.8 186.2 248C186.3 247.4 186.6 246.7 187.4 247.1C187.9 247.4 188.1 248 188.6 248.5Z" fill="#2D1A00"/>
<path d="M197.7 224.9C198.8 224.9 200 225 200 226.4C200 227.8 198.8 227.9 197.7 227.8C197.7 226.8 197.7 225.8 197.7 224.9Z" fill="#533A12"/>
<path d="M204 226.4C203.1 225.7 203 224.8 202.9 223.8C203.9 224.4 204.1 225.3 204 226.4Z" fill="#F1EB2F"/>
<path d="M353.9 188.3C354.8 189.1 355.7 189.8 356.7 190.6C356.9 191 356.9 191.4 356.5 191.7C355.3 192.2 354 193.9 352.8 192C351.7 190.5 352.6 189.3 353.9 188.3Z" fill="#443B07"/>
<path d="M356.4 191.7C356.2 191.3 356.3 190.9 356.6 190.6C356.7 190.9 356.8 191.2 356.8 191.5C356.8 191.6 356.6 191.7 356.4 191.7Z" fill="#F2EA2E"/>
</svg>
