<svg width="36" height="26" viewBox="0 0 36 26" fill="none" xmlns="http://www.w3.org/2000/svg">
<path d="M34.7695 4.56641C34.5703 3.82437 34.1797 3.14767 33.6367 2.60405C33.0938 2.06042 32.4176 1.66893 31.6758 1.46875C28.9453 0.734375 18 0.734375 18 0.734375C18 0.734375 7.05469 0.734375 4.32422 1.46484C3.58211 1.66437 2.90556 2.05565 2.36252 2.59937C1.81948 3.1431 1.42906 3.82014 1.23047 4.5625C0.5 7.29688 0.5 13 0.5 13C0.5 13 0.5 18.7031 1.23047 21.4336C1.63281 22.9414 2.82031 24.1289 4.32422 24.5312C7.05469 25.2656 18 25.2656 18 25.2656C18 25.2656 28.9453 25.2656 31.6758 24.5312C33.1836 24.1289 34.3672 22.9414 34.7695 21.4336C35.5 18.7031 35.5 13 35.5 13C35.5 13 35.5 7.29688 34.7695 4.56641ZM14.5234 18.2344V7.76562L23.5859 12.9609L14.5234 18.2344Z" fill="white" fill-opacity="0.5"/>
</svg>
