<svg width="35" height="27" viewBox="0 0 35 27" fill="none" xmlns="http://www.w3.org/2000/svg">
<path d="M29.6297 2.17722C27.3984 1.17097 25.0067 0.427219 22.5057 0.00430233C22.4834 2.63694e-05 22.4604 0.00278195 22.4397 0.012188C22.4191 0.0215941 22.4019 0.0371853 22.3905 0.0568023C22.0842 0.594927 21.743 1.29639 21.5038 1.85055C18.8513 1.45423 16.1545 1.45423 13.502 1.85055C13.2356 1.23639 12.9352 0.637546 12.6022 0.0568023C12.5909 0.0369438 12.5738 0.0209999 12.5532 0.0110983C12.5326 0.0011968 12.5095 -0.0021916 12.487 0.00138552C9.98737 0.424302 7.5957 1.16805 5.36299 2.17576C5.34378 2.18382 5.3275 2.19756 5.31633 2.21514C0.777993 8.88701 -0.465966 15.3941 0.145076 21.8195C0.146776 21.8352 0.151661 21.8505 0.159433 21.8643C0.167205 21.8781 0.177702 21.8901 0.190284 21.8997C2.83919 23.8283 5.79369 25.2974 8.93008 26.2456C8.95194 26.2523 8.97533 26.2523 8.99718 26.2455C9.01903 26.2387 9.03834 26.2255 9.05258 26.2076C9.72749 25.305 10.3256 24.3474 10.8405 23.3449C10.8476 23.3312 10.8518 23.3161 10.8526 23.3007C10.8534 23.2853 10.8509 23.2698 10.8452 23.2555C10.8395 23.2411 10.8308 23.2281 10.8197 23.2173C10.8086 23.2066 10.7953 23.1984 10.7807 23.1933C9.83862 22.8385 8.92583 22.4104 8.0507 21.9128C8.03498 21.9039 8.02173 21.8911 8.01214 21.8758C8.00255 21.8604 7.99693 21.8429 7.99577 21.8248C7.99461 21.8068 7.99796 21.7887 8.00551 21.7722C8.01306 21.7558 8.02458 21.7415 8.03903 21.7306C8.22278 21.5949 8.40653 21.4535 8.58153 21.312C8.59729 21.2993 8.61626 21.2912 8.63634 21.2886C8.65643 21.286 8.67683 21.2891 8.69528 21.2974C14.4222 23.8699 20.6245 23.8699 26.2842 21.2974C26.3027 21.2886 26.3234 21.2851 26.3437 21.2875C26.3641 21.2898 26.3834 21.2978 26.3995 21.3106C26.5745 21.4535 26.7567 21.5949 26.942 21.7306C26.9565 21.7412 26.9683 21.7554 26.976 21.7717C26.9838 21.788 26.9875 21.806 26.9866 21.8241C26.9857 21.8421 26.9804 21.8597 26.9711 21.8752C26.9618 21.8907 26.9487 21.9036 26.9332 21.9128C26.0611 22.4145 25.154 22.8389 24.2017 23.1918C24.1871 23.1971 24.1738 23.2055 24.1627 23.2163C24.1515 23.2272 24.1428 23.2403 24.1372 23.2548C24.1315 23.2693 24.129 23.2849 24.1298 23.3004C24.1307 23.3159 24.1348 23.3311 24.142 23.3449C24.667 24.3468 25.2678 25.3006 25.9284 26.2062C25.9421 26.2248 25.9613 26.2387 25.9832 26.246C26.0051 26.2533 26.0288 26.2536 26.0509 26.247C29.1927 25.3015 32.152 23.8317 34.8038 21.8997C34.8168 21.8907 34.8276 21.879 34.8357 21.8654C34.8437 21.8518 34.8488 21.8367 34.8505 21.821C35.5797 14.3922 33.6284 7.93764 29.6749 2.21805C29.6652 2.19947 29.6491 2.18498 29.6297 2.17722ZM11.6965 17.9068C9.97278 17.9068 8.55091 16.3478 8.55091 14.436C8.55091 12.5226 9.94508 10.9651 11.6965 10.9651C13.4611 10.9651 14.8699 12.5358 14.8422 14.436C14.8422 16.3493 13.448 17.9068 11.6965 17.9068ZM23.3267 17.9068C21.6015 17.9068 20.1811 16.3478 20.1811 14.436C20.1811 12.5226 21.5738 10.9651 23.3267 10.9651C25.0913 10.9651 26.5001 12.5358 26.4724 14.436C26.4724 16.3493 25.0928 17.9068 23.3267 17.9068Z" fill="white" fill-opacity="0.5"/>
</svg>
