<svg width="34" height="27" viewBox="0 0 34 27" fill="none" xmlns="http://www.w3.org/2000/svg">
<path d="M33.1129 3.19305C31.8952 3.73263 30.5871 4.09721 29.2119 4.26201C30.6308 3.41295 31.6924 2.07664 32.1985 0.502423C30.8654 1.29428 29.4063 1.85167 27.8848 2.15034C26.8616 1.05785 25.5063 0.333732 24.0294 0.0904056C22.5525 -0.15292 21.0366 0.0981602 19.717 0.804666C18.3974 1.51117 17.348 2.63358 16.7317 3.99762C16.1154 5.36166 15.9666 6.89102 16.3085 8.34826C13.6073 8.21262 10.9647 7.51051 8.55229 6.28749C6.1399 5.06447 4.01164 3.34787 2.30562 1.24909C1.72229 2.25534 1.38688 3.42201 1.38688 4.66451C1.38622 5.78304 1.66167 6.88444 2.18878 7.87099C2.71589 8.85754 3.47836 9.69873 4.40854 10.3199C3.32978 10.2856 2.27481 9.99411 1.33146 9.46971V9.55721C1.33135 11.126 1.87401 12.6465 2.86735 13.8608C3.86069 15.075 5.24354 15.9082 6.78125 16.2189C5.78052 16.4897 4.73133 16.5296 3.71292 16.3355C4.14677 17.6854 4.99187 18.8658 6.12991 19.7115C7.26795 20.5572 8.64196 21.0258 10.0596 21.0518C7.65309 22.9409 4.68109 23.9657 1.62167 23.9612C1.07972 23.9613 0.538236 23.9297 0 23.8664C3.10549 25.8631 6.7205 26.9228 10.4125 26.9187C22.9104 26.9187 29.7427 16.5674 29.7427 7.58992C29.7427 7.29826 29.7354 7.00367 29.7223 6.71201C31.0513 5.75093 32.1984 4.56081 33.11 3.19742L33.1129 3.19305Z" fill="white" fill-opacity="0.5"/>
</svg>
