<svg width="35" height="26" viewBox="0 0 35 26" fill="none" xmlns="http://www.w3.org/2000/svg">
<path d="M15.7524 21.0231C15.887 21.0233 16.0203 21.05 16.1446 21.1017C16.2689 21.1534 16.3818 21.229 16.4769 21.3244C16.5719 21.4197 16.6473 21.5328 16.6986 21.6573C16.75 21.7817 16.7763 21.9151 16.7761 22.0497C16.7759 22.1844 16.7492 22.3176 16.6975 22.442C16.6458 22.5663 16.5701 22.6792 16.4748 22.7742C16.3795 22.8693 16.2663 22.9447 16.1419 22.996C16.0174 23.0473 15.8841 23.0737 15.7494 23.0735C15.4775 23.0731 15.2169 22.9647 15.0249 22.7722C14.8329 22.5796 14.7253 22.3187 14.7257 22.0468C14.7261 21.7749 14.8345 21.5143 15.027 21.3223C15.2195 21.1303 15.4805 21.0227 15.7524 21.0231ZM31.829 14.6837C31.6944 14.6836 31.5611 14.657 31.4367 14.6054C31.3124 14.5538 31.1994 14.4782 31.1043 14.3829C31.0092 14.2876 30.9337 14.1746 30.8823 14.0501C30.8309 13.9257 30.8044 13.7924 30.8045 13.6578C30.8046 13.5231 30.8313 13.3898 30.8829 13.2655C30.9345 13.1411 31.0101 13.0282 31.1053 12.933C31.2006 12.8379 31.3137 12.7625 31.4381 12.711C31.5625 12.6596 31.6958 12.6332 31.8305 12.6333C32.1024 12.6335 32.3631 12.7417 32.5552 12.9341C32.7473 13.1265 32.8552 13.3873 32.855 13.6592C32.8548 13.9311 32.7466 14.1918 32.5542 14.3839C32.3618 14.5761 32.1009 14.6839 31.829 14.6837ZM31.829 10.4895C30.9884 10.4903 30.1825 10.8246 29.5881 11.419C28.9937 12.0134 28.6594 12.8193 28.6586 13.6599C28.6586 13.9997 28.7155 14.3381 28.8263 14.6676L18.354 20.2429C18.0636 19.8212 17.6751 19.4765 17.2219 19.2385C16.7686 19.0004 16.2643 18.8762 15.7524 18.8764C14.5434 18.8764 13.4424 19.5691 12.9086 20.6497L3.5009 15.6885C2.50631 15.1664 1.76256 13.5301 1.84131 12.0397C1.88215 11.2624 2.15048 10.6587 2.56027 10.4254C2.81986 10.2795 3.13194 10.2912 3.46444 10.4647L3.52569 10.4983C6.01944 11.8108 14.1774 16.1085 14.5215 16.2674C15.0509 16.5139 15.3455 16.6131 16.2496 16.1843L33.1138 7.4139C33.3617 7.32056 33.6505 7.08286 33.6505 6.72265C33.6505 6.2239 33.1342 6.02702 33.1328 6.02702C32.1732 5.56765 30.6988 4.87786 29.2609 4.20411C26.1867 2.76473 22.7028 1.13432 21.173 0.332232C19.8517 -0.359018 18.7886 0.224316 18.599 0.340982L18.2315 0.523274C11.3453 3.92848 2.12861 8.49307 1.60361 8.81244C0.665898 9.38411 0.0840225 10.5231 0.00818914 11.9362C-0.108478 14.1776 1.0334 16.5154 2.66819 17.3714L12.6169 22.5018C12.7265 23.2554 13.1036 23.9445 13.6793 24.443C14.255 24.9416 14.9908 25.2164 15.7524 25.2172C16.5841 25.2158 17.3821 24.8881 17.9747 24.3045C18.5673 23.7209 18.9072 22.928 18.9213 22.0964L29.8792 16.1566C30.4334 16.5912 31.1232 16.8289 31.829 16.8289C32.6696 16.8281 33.4756 16.4939 34.07 15.8995C34.6644 15.3051 34.9987 14.4991 34.9994 13.6585C34.9987 12.8179 34.6644 12.0119 34.07 11.4175C33.4756 10.8231 32.6696 10.4888 31.829 10.4881" fill="white" fill-opacity="0.5"/>
</svg>
